solid ledcube
facet normal 0.4999999450081974 0.8660254355339647 7.944903712697737e-08
  outer loop
    vertex 113.22726837766702 -150.93511678518604 6.928202833838721
    vertex 118.12624727750212 -153.7635429646227 6.928203159171239
    vertex 115.67675723967224 -152.3493293739712 3.4641017642083742
  endloop
endfacet
facet normal 0.4999999450081974 0.8660254355339647 7.944903712697737e-08
  outer loop
    vertex 118.12624727750212 -153.7635429646227 6.928203159171239
    vertex 113.22726837766702 -150.93511678518604 6.928202833838721
    vertex 114.04376505694513 -151.4065213154027 8.082903298825714
  endloop
endfacet
facet normal 0.4999999450081974 0.8660254355339647 7.944903712697737e-08
  outer loop
    vertex 118.12624727750212 -153.7635429646227 6.928203159171239
    vertex 114.04376505694513 -151.4065213154027 8.082903298825714
    vertex 117.30975136328078 -153.29213940056428 8.082903005259038
  endloop
endfacet
facet normal 8.630048731195215e-08 -6.210208958190576e-09 0.9999999999999962
  outer loop
    vertex 110.7777787280253 -153.29213938954575 8.08290356897186
    vertex 117.30975136328078 -153.29213940056428 8.082903005259038
    vertex 114.04376505694513 -151.4065213154027 8.082903298825714
  endloop
endfacet
facet normal 8.630048731195215e-08 -6.210208958190576e-09 0.9999999999999962
  outer loop
    vertex 117.30975136328078 -153.29213940056428 8.082903005259038
    vertex 110.7777787280253 -153.29213938954575 8.08290356897186
    vertex 114.25509006927416 -154.38908207896975 8.082903042631912
  endloop
endfacet
facet normal 8.630048731195215e-08 -6.210208958190576e-09 0.9999999999999962
  outer loop
    vertex 117.30975136328078 -153.29213940056428 8.082903005259038
    vertex 114.25509006927416 -154.38908207896975 8.082903042631912
    vertex 114.45201349410755 -154.47065043292193 8.08290302513077
  endloop
endfacet
facet normal 8.630048731195215e-08 -6.210208958190576e-09 0.9999999999999962
  outer loop
    vertex 114.25509006927416 -154.38908207896975 8.082903042631912
    vertex 110.7777787280253 -153.29213938954575 8.08290356897186
    vertex 114.04376520394581 -154.36126063205307 8.082903061042133
  endloop
endfacet
facet normal 8.630048731195215e-08 -6.210208958190576e-09 0.9999999999999962
  outer loop
    vertex 114.04376520394581 -154.36126063205307 8.082903061042133
    vertex 110.7777787280253 -153.29213938954575 8.08290356897186
    vertex 113.83244033846375 -154.38908207780224 8.082903079106748
  endloop
endfacet
facet normal 8.630048731195215e-08 -6.210208958190576e-09 0.9999999999999962
  outer loop
    vertex 113.83244033846375 -154.38908207780224 8.082903079106748
    vertex 110.7777787280253 -153.29213938954575 8.08290356897186
    vertex 113.63551691317971 -154.47065043066664 8.082903095594835
  endloop
endfacet
facet normal 8.630048731195215e-08 -6.210208958190576e-09 0.9999999999999962
  outer loop
    vertex 113.63551691317971 -154.47065043066664 8.082903095594835
    vertex 110.7777787280253 -153.29213938954575 8.08290356897186
    vertex 113.46641493409554 -154.60040694219646 8.082903109382613
  endloop
endfacet
facet normal 8.630048731195215e-08 -6.210208958190576e-09 0.9999999999999962
  outer loop
    vertex 113.46641493409554 -154.60040694219646 8.082903109382613
    vertex 110.7777787280253 -153.29213938954575 8.08290356897186
    vertex 113.3366584216315 -154.76950892056382 8.082903119530457
  endloop
endfacet
facet normal 8.630048731195215e-08 -6.210208958190576e-09 0.9999999999999962
  outer loop
    vertex 113.3366584216315 -154.76950892056382 8.082903119530457
    vertex 110.7777787280253 -153.29213938954575 8.08290356897186
    vertex 113.2550900676793 -154.96643234539718 8.082903125346977
  endloop
endfacet
facet normal 8.630048731195215e-08 -6.210208958190576e-09 0.9999999999999962
  outer loop
    vertex 113.2550900676793 -154.96643234539718 8.082903125346977
    vertex 110.7777787280253 -153.29213938954575 8.08290356897186
    vertex 110.77777871760807 -157.06337548535734 8.082903545551469
  endloop
endfacet
facet normal 8.630048731195215e-08 -6.210208958190576e-09 0.9999999999999962
  outer loop
    vertex 113.2550900676793 -154.96643234539718 8.082903125346977
    vertex 110.77777871760807 -157.06337548535734 8.082903545551469
    vertex 113.22726862076262 -155.17775721072556 8.082903126435635
  endloop
endfacet
facet normal 8.630048731195215e-08 -6.210208958190576e-09 0.9999999999999962
  outer loop
    vertex 113.22726862076262 -155.17775721072556 8.082903126435635
    vertex 110.77777871760807 -157.06337548535734 8.082903545551469
    vertex 113.2550900665118 -155.3890820762077 8.082903122722284
  endloop
endfacet
facet normal 8.630048731195215e-08 -6.210208958190576e-09 0.9999999999999962
  outer loop
    vertex 113.2550900665118 -155.3890820762077 8.082903122722284
    vertex 110.77777871760807 -157.06337548535734 8.082903545551469
    vertex 113.33665841937615 -155.58600550149166 8.082903114459988
  endloop
endfacet
facet normal 8.630048731195215e-08 -6.210208958190576e-09 0.9999999999999962
  outer loop
    vertex 113.33665841937615 -155.58600550149166 8.082903114459988
    vertex 110.77777871760807 -157.06337548535734 8.082903545551469
    vertex 113.46641493090597 -155.7551074805759 8.082903102211825
  endloop
endfacet
facet normal 8.630048731195215e-08 -6.210208958190576e-09 0.9999999999999962
  outer loop
    vertex 113.46641493090597 -155.7551074805759 8.082903102211825
    vertex 110.77777871760807 -157.06337548535734 8.082903545551469
    vertex 113.63551690927335 -155.88486399303991 8.082903086812468
  endloop
endfacet
facet normal 8.630048731195215e-08 -6.210208958190576e-09 0.9999999999999962
  outer loop
    vertex 117.30975136328078 -153.29213940056428 8.082903005259038
    vertex 114.62111547247491 -154.600406945386 8.082903009731439
    vertex 117.30975130419661 -157.06337560903896 8.082902981839204
  endloop
endfacet
facet normal 8.630048731195215e-08 -6.210208958190576e-09 0.9999999999999962
  outer loop
    vertex 114.62111547247491 -154.600406945386 8.082903009731439
    vertex 117.30975136328078 -153.29213940056428 8.082903005259038
    vertex 114.45201349410755 -154.47065043292193 8.08290302513077
  endloop
endfacet
facet normal 8.630048731195215e-08 -6.210208958190576e-09 0.9999999999999962
  outer loop
    vertex 117.30975130419661 -157.06337560903896 8.082902981839204
    vertex 114.62111547247491 -154.600406945386 8.082903009731439
    vertex 114.75087198400476 -154.76950892447013 8.082902997483261
  endloop
endfacet
facet normal 8.630048731195215e-08 -6.210208958190576e-09 0.9999999999999962
  outer loop
    vertex 117.30975130419661 -157.06337560903896 8.082902981839204
    vertex 114.75087198400476 -154.76950892447013 8.082902997483261
    vertex 114.8324403368691 -154.9664323497542 8.082902989221
  endloop
endfacet
facet normal 8.630048731195215e-08 -6.210208958190576e-09 0.9999999999999962
  outer loop
    vertex 117.30975130419661 -157.06337560903896 8.082902981839204
    vertex 114.8324403368691 -154.9664323497542 8.082902989221
    vertex 114.8602617826183 -155.17775721523628 8.082902985507628
  endloop
endfacet
facet normal 8.630048731195215e-08 -6.210208958190576e-09 0.9999999999999962
  outer loop
    vertex 117.30975130419661 -157.06337560903896 8.082902981839204
    vertex 114.8602617826183 -155.17775721523628 8.082902985507628
    vertex 114.83244033570162 -155.38908208056458 8.082902986596313
  endloop
endfacet
facet normal 8.630048731195215e-08 -6.210208958190576e-09 0.9999999999999962
  outer loop
    vertex 117.30975130419661 -157.06337560903896 8.082902981839204
    vertex 114.83244033570162 -155.38908208056458 8.082902986596313
    vertex 114.75087198174944 -155.586005505398 8.082902992412814
  endloop
endfacet
facet normal 8.630048731195215e-08 -6.210208958190576e-09 0.9999999999999962
  outer loop
    vertex 117.30975130419661 -157.06337560903896 8.082902981839204
    vertex 114.75087198174944 -155.586005505398 8.082902992412814
    vertex 114.6211154692854 -155.75510748376539 8.082903002560661
  endloop
endfacet
facet normal 8.630048731195215e-08 -6.210208958190576e-09 0.9999999999999962
  outer loop
    vertex 117.30975130419661 -157.06337560903896 8.082902981839204
    vertex 114.6211154692854 -155.75510748376539 8.082903002560661
    vertex 114.04376504832413 -158.94899364100812 8.08290325198541
  endloop
endfacet
facet normal 8.630048731195215e-08 -6.210208958190576e-09 0.9999999999999962
  outer loop
    vertex 114.04376504832413 -158.94899364100812 8.08290325198541
    vertex 114.6211154692854 -155.75510748376539 8.082903002560661
    vertex 114.4520134902012 -155.88486399529523 8.082903016348462
  endloop
endfacet
facet normal 8.630048731195215e-08 -6.210208958190576e-09 0.9999999999999962
  outer loop
    vertex 114.04376504832413 -158.94899364100812 8.08290325198541
    vertex 114.4520134902012 -155.88486399529523 8.082903016348462
    vertex 114.25509006491718 -155.9664323481596 8.082903032836482
  endloop
endfacet
facet normal 8.630048731195215e-08 -6.210208958190576e-09 0.9999999999999962
  outer loop
    vertex 114.04376504832413 -158.94899364100812 8.08290325198541
    vertex 114.25509006491718 -155.9664323481596 8.082903032836482
    vertex 114.0437651994351 -155.99425379390877 8.082903050901141
  endloop
endfacet
facet normal 8.630048731195215e-08 -6.210208958190576e-09 0.9999999999999962
  outer loop
    vertex 114.04376504832413 -158.94899364100812 8.08290325198541
    vertex 114.0437651994351 -155.99425379390877 8.082903050901141
    vertex 113.83244033410676 -155.96643234699212 8.082903069311339
  endloop
endfacet
facet normal 8.630048731195215e-08 -6.210208958190576e-09 0.9999999999999962
  outer loop
    vertex 114.04376504832413 -158.94899364100812 8.08290325198541
    vertex 113.83244033410676 -155.96643234699212 8.082903069311339
    vertex 113.63551690927335 -155.88486399303991 8.082903086812468
  endloop
endfacet
facet normal 8.630048731195215e-08 -6.210208958190576e-09 0.9999999999999962
  outer loop
    vertex 114.04376504832413 -158.94899364100812 8.08290325198541
    vertex 113.63551690927335 -155.88486399303991 8.082903086812468
    vertex 110.77777871760807 -157.06337548535734 8.082903545551469
  endloop
endfacet
facet normal 2.4424906541753444e-15 1.4900786104998787e-08 -0.9999999999999999
  outer loop
    vertex 108.32828828247419 -155.1777574157478 -4.088951399694451e-14
    vertex 112.11191285298429 -154.6601190672444 3.9373198138514806e-07
    vertex 112.04376450413257 -155.1777571572612 3.9639862347007333e-07
  endloop
endfacet
facet normal 2.4424906541753444e-15 1.4900786104998787e-08 -0.9999999999999999
  outer loop
    vertex 112.11191285298429 -154.6601190672444 3.9373198138514806e-07
    vertex 108.32828828247419 -155.1777574157478 -4.088951399694451e-14
    vertex 112.31171369932594 -154.1777571580014 3.7948457025649414e-07
  endloop
endfacet
facet normal 2.4424906541753444e-15 1.4900786104998787e-08 -0.9999999999999999
  outer loop
    vertex 112.31171369932594 -154.1777571580014 3.7948457025649414e-07
    vertex 108.32828828247419 -155.1777574157478 -4.088951399694451e-14
    vertex 112.62955094566587 -153.76354359650617 3.5462739337299706e-07
  endloop
endfacet
facet normal 2.4424906541753444e-15 1.4900786104998787e-08 -0.9999999999999999
  outer loop
    vertex 112.62955094566587 -153.76354359650617 3.5462739337299706e-07
    vertex 108.32828828247419 -155.1777574157478 -4.088951399694451e-14
    vertex 116.90150184230156 -150.2280090122823 7.37551179241791e-08
  endloop
endfacet
facet normal 2.4424906541753444e-15 1.4900786104998787e-08 -0.9999999999999999
  outer loop
    vertex 112.62955094566587 -153.76354359650617 3.5462739337299706e-07
    vertex 116.90150184230156 -150.2280090122823 7.37551179241791e-08
    vertex 113.04376450891688 -153.44570635245458 3.208543623012261e-07
  endloop
endfacet
facet normal 2.4424906541753444e-15 1.4900786104998787e-08 -0.9999999999999999
  outer loop
    vertex 113.04376450891688 -153.44570635245458 3.208543623012261e-07
    vertex 116.90150184230156 -150.2280090122823 7.37551179241791e-08
    vertex 113.52612641926376 -153.24590550877772 2.804670885647731e-07
  endloop
endfacet
facet normal 2.4424906541753444e-15 1.4900786104998787e-08 -0.9999999999999999
  outer loop
    vertex 113.52612641926376 -153.24590550877772 2.804670885647731e-07
    vertex 116.90150184230156 -150.2280090122823 7.37551179241791e-08
    vertex 114.04376450965704 -153.17775716278572 2.3621791161998473e-07
  endloop
endfacet
facet normal 2.4424906541753444e-15 1.4900786104998787e-08 -0.9999999999999999
  outer loop
    vertex 114.04376450965704 -153.17775716278572 2.3621791161998473e-07
    vertex 116.90150184230156 -150.2280090122823 7.37551179241791e-08
    vertex 114.56140259967385 -153.24590551163735 1.911223287853758e-07
  endloop
endfacet
facet normal 2.4424906541753444e-15 1.4900786104998787e-08 -0.9999999999999999
  outer loop
    vertex 114.56140259967385 -153.24590551163735 1.911223287853758e-07
    vertex 116.90150184230156 -150.2280090122823 7.37551179241791e-08
    vertex 115.04376450891688 -153.44570635797902 1.4825356914327514e-07
  endloop
endfacet
facet normal 2.4424906541753444e-15 1.4900786104998787e-08 -0.9999999999999999
  outer loop
    vertex 115.04376450891688 -153.44570635797902 1.4825356914327514e-07
    vertex 116.90150184230156 -150.2280090122823 7.37551179241791e-08
    vertex 115.45797807041207 -153.76354360431895 1.1053294877161334e-07
  endloop
endfacet
facet normal 2.4424906541753444e-15 1.4900786104998787e-08 -0.9999999999999999
  outer loop
    vertex 115.45797807041207 -153.76354360431895 1.1053294877161334e-07
    vertex 116.90150184230156 -150.2280090122823 7.37551179241791e-08
    vertex 115.7758153144637 -154.17775716757 8.053113078609896e-08
  endloop
endfacet
facet normal 2.4424906541753444e-15 1.4900786104998787e-08 -0.9999999999999999
  outer loop
    vertex 115.7758153144637 -154.17775716757 8.053113078609896e-08
    vertex 116.90150184230156 -150.2280090122823 7.37551179241791e-08
    vertex 115.97561615814055 -154.66011907791682 6.029276995445088e-08
  endloop
endfacet
facet normal 2.4424906541753444e-15 1.4900786104998787e-08 -0.9999999999999999
  outer loop
    vertex 115.97561615814055 -154.66011907791682 6.029276995445088e-08
    vertex 116.90150184230156 -150.2280090122823 7.37551179241791e-08
    vertex 116.0437645041326 -155.17775716831017 5.119697793487532e-08
  endloop
endfacet
facet normal 2.4424906541753444e-15 1.4900786104998787e-08 -0.9999999999999999
  outer loop
    vertex 116.0437645041326 -155.17775716831017 5.119697793487532e-08
    vertex 116.90150184230156 -150.2280090122823 7.37551179241791e-08
    vertex 116.90150169329051 -160.12750394889304 -7.375513343399475e-08
  endloop
endfacet
facet normal 2.4424906541753444e-15 1.4900786104998787e-08 -0.9999999999999999
  outer loop
    vertex 108.32828828247419 -155.1777574157478 -4.088951399694451e-14
    vertex 112.62955093785312 -156.59197072125244 3.370626963428158e-07
    vertex 116.90150169329051 -160.12750394889304 -7.375513343399475e-08
  endloop
endfacet
facet normal 2.4424906541753444e-15 1.4900786104998787e-08 -0.9999999999999999
  outer loop
    vertex 112.62955093785312 -156.59197072125244 3.370626963428158e-07
    vertex 108.32828828247419 -155.1777574157478 -4.088951399694451e-14
    vertex 112.3117136938015 -156.17775715800138 3.6706448894863183e-07
  endloop
endfacet
facet normal 2.4424906541753444e-15 1.4900786104998787e-08 -0.9999999999999999
  outer loop
    vertex 112.3117136938015 -156.17775715800138 3.6706448894863183e-07
    vertex 108.32828828247419 -155.1777574157478 -4.088951399694451e-14
    vertex 112.11191285012465 -155.6953952476545 3.873028610601459e-07
  endloop
endfacet
facet normal 2.4424906541753444e-15 1.4900786104998787e-08 -0.9999999999999999
  outer loop
    vertex 112.11191285012465 -155.6953952476545 3.873028610601459e-07
    vertex 108.32828828247419 -155.1777574157478 -4.088951399694451e-14
    vertex 112.04376450413257 -155.1777571572612 3.9639862347007333e-07
  endloop
endfacet
facet normal 2.4424906541753444e-15 1.4900786104998787e-08 -0.9999999999999999
  outer loop
    vertex 116.90150169329051 -160.12750394889304 -7.375513343399475e-08
    vertex 112.62955093785312 -156.59197072125244 3.370626963428158e-07
    vertex 113.04376449934826 -156.90980796759234 2.9934210840076856e-07
  endloop
endfacet
facet normal 2.4424906541753444e-15 1.4900786104998787e-08 -0.9999999999999999
  outer loop
    vertex 116.90150169329051 -160.12750394889304 -7.375513343399475e-08
    vertex 113.04376449934826 -156.90980796759234 2.9934210840076856e-07
    vertex 113.52612640859134 -157.109608813934 2.564733290189025e-07
  endloop
endfacet
facet normal 2.4424906541753444e-15 1.4900786104998787e-08 -0.9999999999999999
  outer loop
    vertex 116.90150169329051 -160.12750394889304 -7.375513343399475e-08
    vertex 113.52612640859134 -157.109608813934 2.564733290189025e-07
    vertex 114.04376449860814 -157.1777571627857 2.1137773349444443e-07
  endloop
endfacet
facet normal 2.4424906541753444e-15 1.4900786104998787e-08 -0.9999999999999999
  outer loop
    vertex 116.90150169329051 -160.12750394889304 -7.375513343399475e-08
    vertex 114.04376449860814 -157.1777571627857 2.1137773349444443e-07
    vertex 114.5614025890014 -157.1096088167937 1.6712854949973988e-07
  endloop
endfacet
facet normal 2.4424906541753444e-15 1.4900786104998787e-08 -0.9999999999999999
  outer loop
    vertex 116.90150169329051 -160.12750394889304 -7.375513343399475e-08
    vertex 114.5614025890014 -157.1096088167937 1.6712854949973988e-07
    vertex 115.04376449934826 -156.90980797311676 1.267412630734377e-07
  endloop
endfacet
facet normal 2.4424906541753444e-15 1.4900786104998787e-08 -0.9999999999999999
  outer loop
    vertex 116.90150169329051 -160.12750394889304 -7.375513343399475e-08
    vertex 115.04376449934826 -156.90980797311676 1.267412630734377e-07
    vertex 115.45797806259931 -156.5919707290652 9.296827007121422e-08
  endloop
endfacet
facet normal 2.4424906541753444e-15 1.4900786104998787e-08 -0.9999999999999999
  outer loop
    vertex 116.90150169329051 -160.12750394889304 -7.375513343399475e-08
    vertex 115.45797806259931 -156.5919707290652 9.296827007121422e-08
    vertex 115.77581530893927 -156.17775716757 6.811105511816961e-08
  endloop
endfacet
facet normal 2.4424906541753444e-15 1.4900786104998787e-08 -0.9999999999999999
  outer loop
    vertex 116.90150169329051 -160.12750394889304 -7.375513343399475e-08
    vertex 115.77581530893927 -156.17775716757 6.811105511816961e-08
    vertex 115.9756161552809 -155.69539525832695 5.386367077919729e-08
  endloop
endfacet
facet normal 2.4424906541753444e-15 1.4900786104998787e-08 -0.9999999999999999
  outer loop
    vertex 116.90150169329051 -160.12750394889304 -7.375513343399475e-08
    vertex 115.9756161552809 -155.69539525832695 5.386367077919729e-08
    vertex 116.0437645041326 -155.17775716831017 5.119697793487532e-08
  endloop
endfacet
facet normal -0.28867520367784405 0.5000000058680395 -0.8164965529097571
  outer loop
    vertex 106.2870470890489 -151.64222352210408 2.8867515440646536
    vertex 116.90150184230156 -150.2280090122823 7.37551179241791e-08
    vertex 108.32828828247419 -155.1777574157478 -4.088951399694451e-14
  endloop
endfacet
facet normal -0.28867520367784405 0.5000000058680395 -0.8164965529097571
  outer loop
    vertex 116.90150184230156 -150.2280090122823 7.37551179241791e-08
    vertex 106.2870470890489 -151.64222352210408 2.8867515440646536
    vertex 114.86026120246225 -146.69247607747943 2.8867508349308646
  endloop
endfacet
facet normal -0.4082482386850253 0.7071067787287452 0.5773503088129703
  outer loop
    vertex 105.47055060386604 -153.0564370893927 4.041452144125432
    vertex 107.5117921079642 -152.34933031743003 4.618802241546163
    vertex 106.2870470890489 -151.64222352210408 2.8867515440646536
  endloop
endfacet
facet normal -0.4082482386850253 0.7071067787287452 0.5773503088129703
  outer loop
    vertex 107.5117921079642 -152.34933031743003 4.618802241546163
    vertex 105.47055060386604 -153.0564370893927 4.041452144125432
    vertex 107.10354386537273 -153.05643710107435 5.196152541576545
  endloop
endfacet
facet normal -0.4082482386850253 0.7071067787287452 0.5773503088129703
  outer loop
    vertex 114.86026120246225 -146.69247607747943 2.8867508349308646
    vertex 115.67675797878685 -148.10668965645007 5.196151832442693
    vertex 116.49325446396897 -146.692476089161 4.041451232381985
  endloop
endfacet
facet normal -0.4082482386850253 0.7071067787287452 0.5773503088129703
  outer loop
    vertex 115.67675797878685 -148.10668965645007 5.196151832442693
    vertex 114.86026120246225 -146.69247607747943 2.8867508349308646
    vertex 114.86026134803274 -148.1066896506089 4.618801633717187
  endloop
endfacet
facet normal -0.4082482386850253 0.7071067787287452 0.5773503088129703
  outer loop
    vertex 114.86026134803274 -148.1066896506089 4.618801633717187
    vertex 114.86026120246225 -146.69247607747943 2.8867508349308646
    vertex 106.2870470890489 -151.64222352210408 2.8867515440646536
  endloop
endfacet
facet normal -0.4082482386850253 0.7071067787287452 0.5773503088129703
  outer loop
    vertex 114.86026134803274 -148.1066896506089 4.618801633717187
    vertex 106.2870470890489 -151.64222352210408 2.8867515440646536
    vertex 113.22726837766702 -150.93511678518604 6.928202833838721
  endloop
endfacet
facet normal -0.4082482386850253 0.7071067787287452 0.5773503088129703
  outer loop
    vertex 113.22726837766702 -150.93511678518604 6.928202833838721
    vertex 106.2870470890489 -151.64222352210408 2.8867515440646536
    vertex 114.04376505694513 -151.4065213154027 8.082903298825714
  endloop
endfacet
facet normal -0.4082482386850253 0.7071067787287452 0.5773503088129703
  outer loop
    vertex 114.04376505694513 -151.4065213154027 8.082903298825714
    vertex 106.2870470890489 -151.64222352210408 2.8867515440646536
    vertex 110.77777863097755 -152.34933034079322 6.928203036448378
  endloop
endfacet
facet normal -0.4082482386850253 0.7071067787287452 0.5773503088129703
  outer loop
    vertex 114.04376505694513 -151.4065213154027 8.082903298825714
    vertex 110.77777863097755 -152.34933034079322 6.928203036448378
    vertex 110.7777787280253 -153.29213938954575 8.08290356897186
  endloop
endfacet
facet normal -0.4082482386850253 0.7071067787287452 0.5773503088129703
  outer loop
    vertex 110.77777863097755 -152.34933034079322 6.928203036448378
    vertex 106.2870470890489 -151.64222352210408 2.8867515440646536
    vertex 107.5117921079642 -152.34933031743003 4.618802241546163
  endloop
endfacet
facet normal -0.4082482386850559 0.707106778728751 0.5773503088129414
  outer loop
    vertex 106.69529531992123 -155.17775742557902 2.3094012176865983
    vertex 107.10354385365368 -157.29907778819364 5.196152515228842
    vertex 108.32828858142794 -155.1777574372606 3.464101615137693
  endloop
endfacet
facet normal -0.4082482386850559 0.707106778728751 0.5773503088129414
  outer loop
    vertex 107.10354385365368 -157.29907778819364 5.196152515228842
    vertex 106.69529531992123 -155.17775742557902 2.3094012176865983
    vertex 105.47055059214699 -157.29907777651198 4.041452117777741
  endloop
endfacet
facet normal -0.28867513177662923 -0.5000000372389116 -0.8164965591200204
  outer loop
    vertex 114.86026048033334 -163.66303786711472 2.8867514263967666
    vertex 108.32828828247419 -155.1777574157478 -4.088951399694451e-14
    vertex 116.90150169329051 -160.12750394889304 -7.375513343399475e-08
  endloop
endfacet
facet normal -0.28867513177662923 -0.5000000372389116 -0.8164965591200204
  outer loop
    vertex 108.32828828247419 -155.1777574157478 -4.088951399694451e-14
    vertex 114.86026048033334 -163.66303786711472 2.8867514263967666
    vertex 106.2870470695171 -158.71329133396952 2.8867515001518536
  endloop
endfacet
facet normal -0.408248242591421 -0.7071067836443441 0.5773503000303776
  outer loop
    vertex 108.32828858142794 -155.1777574372606 3.464101615137693
    vertex 105.47055060386604 -153.0564370893927 4.041452144125432
    vertex 106.69529531992123 -155.17775742557902 2.3094012176865983
  endloop
endfacet
facet normal -0.408248242591421 -0.7071067836443441 0.5773503000303776
  outer loop
    vertex 105.47055060386604 -153.0564370893927 4.041452144125432
    vertex 108.32828858142794 -155.1777574372606 3.464101615137693
    vertex 107.10354386537273 -153.05643710107435 5.196152541576545
  endloop
endfacet
facet normal 0.8164966307533461 -5.840807488061527e-09 0.5773501987255517
  outer loop
    vertex 109.14478506270447 -155.17775743234515 2.309401006294304
    vertex 108.32828858142794 -155.1777574372606 3.464101615137693
    vertex 107.51179209233875 -158.00618456692246 4.61880220641581
  endloop
endfacet
facet normal 0.8164966307533461 -5.840807488061527e-09 0.5773501987255517
  outer loop
    vertex 108.32828858142794 -155.1777574372606 3.464101615137693
    vertex 109.14478506270447 -155.17775743234515 2.309401006294304
    vertex 107.5117921079642 -152.34933031743003 4.618802241546163
  endloop
endfacet
facet normal 0.8164966307533461 -5.840807488061527e-09 0.5773501987255517
  outer loop
    vertex 108.32828858142794 -155.1777574372606 3.464101615137693
    vertex 107.5117921079642 -152.34933031743003 4.618802241546163
    vertex 107.10354386537273 -153.05643710107435 5.196152541576545
  endloop
endfacet
facet normal 0.8164966307533461 -5.840807488061527e-09 0.5773501987255517
  outer loop
    vertex 107.10354385365368 -157.29907778819364 5.196152515228842
    vertex 107.51179209233875 -158.00618456692246 4.61880220641581
    vertex 108.32828858142794 -155.1777574372606 3.464101615137693
  endloop
endfacet
facet normal -0.4082482425912712 -0.7071067836444543 0.5773503000303486
  outer loop
    vertex 110.77777832421171 -155.17775744402593 3.4641014037449294
    vertex 107.5117921079642 -152.34933031743003 4.618802241546163
    vertex 109.14478506270447 -155.17775743234515 2.309401006294304
  endloop
endfacet
facet normal -0.4082482425912712 -0.7071067836444543 0.5773503000303486
  outer loop
    vertex 107.5117921079642 -152.34933031743003 4.618802241546163
    vertex 110.77777832421171 -155.17775744402593 3.4641014037449294
    vertex 110.77777863097755 -152.34933034079322 6.928203036448378
  endloop
endfacet
facet normal 0.8164966368680682 -1.820538404743297e-08 0.577350190078027
  outer loop
    vertex 120.16748850653237 -148.8137954840279 4.041451676405203
    vertex 119.75924024786785 -150.9351158300454 4.618801959049805
    vertex 120.98398495956903 -150.22800904148542 2.8867510415729534
  endloop
endfacet
facet normal 0.8164966368680682 -1.820538404743297e-08 0.577350190078027
  outer loop
    vertex 119.75924024786785 -150.9351158300454 4.618801959049805
    vertex 120.16748850653237 -148.8137954840279 4.041451676405203
    vertex 119.35099202135025 -150.22800905131695 5.196152276465944
  endloop
endfacet
facet normal 0.8164966368680682 -1.820538404743297e-08 0.577350190078027
  outer loop
    vertex 120.98398495956903 -150.22800904148542 2.8867510415729534
    vertex 120.16748836187436 -161.54171754538572 4.041451519933385
    vertex 120.98398484705722 -160.12750397809702 2.8867509198726244
  endloop
endfacet
facet normal 0.8164966368680682 -1.820538404743297e-08 0.577350190078027
  outer loop
    vertex 120.16748836187436 -161.54171754538572 4.041451519933385
    vertex 120.98398495956903 -150.22800904148542 2.8867510415729534
    vertex 119.75924012709571 -159.42039720428386 4.618801837528897
  endloop
endfacet
facet normal 0.8164966368680682 -1.820538404743297e-08 0.577350190078027
  outer loop
    vertex 120.16748836187436 -161.54171754538572 4.041451519933385
    vertex 119.75924012709571 -159.42039720428386 4.618801837528897
    vertex 119.35099188450427 -160.1275039879282 5.196152137559245
  endloop
endfacet
facet normal 0.8164966368680682 -1.820538404743297e-08 0.577350190078027
  outer loop
    vertex 119.75924012709571 -159.42039720428386 4.618801837528897
    vertex 120.98398495956903 -150.22800904148542 2.8867510415729534
    vertex 118.12624724535591 -156.59197008936889 6.9282031243997295
  endloop
endfacet
facet normal 0.8164966368680682 -1.820538404743297e-08 0.577350190078027
  outer loop
    vertex 118.12624724535591 -156.59197008936889 6.9282031243997295
    vertex 120.98398495956903 -150.22800904148542 2.8867510415729534
    vertex 117.30975130419661 -157.06337560903896 8.082902981839204
  endloop
endfacet
facet normal 0.8164966368680682 -1.820538404743297e-08 0.577350190078027
  outer loop
    vertex 117.30975130419661 -157.06337560903896 8.082902981839204
    vertex 120.98398495956903 -150.22800904148542 2.8867510415729534
    vertex 118.12624727750212 -153.7635429646227 6.928203159171239
  endloop
endfacet
facet normal 0.8164966368680682 -1.820538404743297e-08 0.577350190078027
  outer loop
    vertex 117.30975130419661 -157.06337560903896 8.082902981839204
    vertex 118.12624727750212 -153.7635429646227 6.928203159171239
    vertex 117.30975136328078 -153.29213940056428 8.082903005259038
  endloop
endfacet
facet normal 0.8164966368680682 -1.820538404743297e-08 0.577350190078027
  outer loop
    vertex 118.12624727750212 -153.7635429646227 6.928203159171239
    vertex 120.98398495956903 -150.22800904148542 2.8867510415729534
    vertex 119.75924024786785 -150.9351158300454 4.618801959049805
  endloop
endfacet
facet normal -0.4082482405510418 0.7071067790225676 0.5773503071336401
  outer loop
    vertex 109.14478506270447 -155.17775743234515 2.309401006294304
    vertex 110.77777860822786 -158.0061845585526 6.928202979006521
    vertex 110.77777832421171 -155.17775744402593 3.4641014037449294
  endloop
endfacet
facet normal -0.4082482405510418 0.7071067790225676 0.5773503071336401
  outer loop
    vertex 110.77777860822786 -158.0061845585526 6.928202979006521
    vertex 109.14478506270447 -155.17775743234515 2.309401006294304
    vertex 107.51179209233875 -158.00618456692246 4.61880220641581
  endloop
endfacet
facet normal -0.4082482425911458 -0.7071067836443963 0.5773503000305084
  outer loop
    vertex 119.75924012709571 -159.42039720428386 4.618801837528897
    vertex 115.67675780196475 -158.0061845823043 3.4641009633950457
    vertex 116.49325372574864 -159.4203971809212 2.3094011286584317
  endloop
endfacet
facet normal -0.4082482425911458 -0.7071067836443963 0.5773503000305084
  outer loop
    vertex 115.67675780196475 -158.0061845823043 3.4641009633950457
    vertex 119.75924012709571 -159.42039720428386 4.618801837528897
    vertex 118.12624724535591 -156.59197008936889 6.9282031243997295
  endloop
endfacet
facet normal 0.816496760425029 -1.662680310079291e-07 0.577350015341998
  outer loop
    vertex 116.49325372574864 -159.4203971809212 2.3094011286584317
    vertex 113.22726946574807 -159.42039811719656 6.928203567004159
    vertex 114.86026075538228 -162.24882431549977 4.6188023287808955
  endloop
endfacet
facet normal 0.816496760425029 -1.662680310079291e-07 0.577350015341998
  outer loop
    vertex 113.22726946574807 -159.42039811719656 6.928203567004159
    vertex 116.49325372574864 -159.4203971809212 2.3094011286584317
    vertex 115.67675780196475 -158.0061845823043 3.4641009633950457
  endloop
endfacet
facet normal -0.4082482425914211 -0.707106783644344 0.5773503000303777
  outer loop
    vertex 120.16748836187436 -161.54171754538572 4.041451519933385
    vertex 116.90150199224425 -160.12750397040583 3.4641015413825937
    vertex 117.71799846961433 -161.54171752786326 2.309400923756733
  endloop
endfacet
facet normal -0.4082482425914211 -0.707106783644344 0.5773503000303777
  outer loop
    vertex 116.90150199224425 -160.12750397040583 3.4641015413825937
    vertex 120.16748836187436 -161.54171754538572 4.041451519933385
    vertex 119.35099188450427 -160.1275039879282 5.196152137559245
  endloop
endfacet
facet normal 0.5000001725610966 -0.8660253041562169 -7.457757772444396e-08
  outer loop
    vertex 117.30975130419661 -157.06337560903896 8.082902981839204
    vertex 115.67675780196475 -158.0061845823043 3.4641009633950457
    vertex 118.12624724535591 -156.59197008936889 6.9282031243997295
  endloop
endfacet
facet normal 0.5000001725610966 -0.8660253041562169 -7.457757772444396e-08
  outer loop
    vertex 115.67675780196475 -158.0061845823043 3.4641009633950457
    vertex 117.30975130419661 -157.06337560903896 8.082902981839204
    vertex 113.22726946574807 -159.42039811719656 6.928203567004159
  endloop
endfacet
facet normal 0.5000001725610966 -0.8660253041562169 -7.457757772444396e-08
  outer loop
    vertex 113.22726946574807 -159.42039811719656 6.928203567004159
    vertex 117.30975130419661 -157.06337560903896 8.082902981839204
    vertex 114.04376504832413 -158.94899364100812 8.08290325198541
  endloop
endfacet
facet normal -0.40824823868517174 0.7071067787285503 0.5773503088131052
  outer loop
    vertex 117.71799862643813 -148.81379546650638 2.3094010888321255
    vertex 119.35099202135025 -150.22800905131695 5.196152276465944
    vertex 120.16748850653237 -148.8137954840279 4.041451676405203
  endloop
endfacet
facet normal -0.40824823868517174 0.7071067787285503 0.5773503088131052
  outer loop
    vertex 119.35099202135025 -150.22800905131695 5.196152276465944
    vertex 117.71799862643813 -148.81379546650638 2.3094010888321255
    vertex 116.90150214125602 -150.22800903379542 3.464101688892845
  endloop
endfacet
facet normal 0.8164966307534621 -5.840606790992297e-09 0.5773501987253876
  outer loop
    vertex 117.71799862643813 -148.81379546650638 2.3094010888321255
    vertex 115.67675797878685 -148.10668965645007 5.196151832442693
    vertex 116.90150214125602 -150.22800903379542 3.464101688892845
  endloop
endfacet
facet normal 0.8164966307534621 -5.840606790992297e-09 0.5773501987253876
  outer loop
    vertex 115.67675797878685 -148.10668965645007 5.196151832442693
    vertex 117.71799862643813 -148.81379546650638 2.3094010888321255
    vertex 116.49325446396897 -146.692476089161 4.041451232381985
  endloop
endfacet
facet normal 0.40824824259107345 0.7071067836445446 -0.5773503000303778
  outer loop
    vertex 116.49325446396897 -146.692476089161 4.041451232381985
    vertex 116.90150184230156 -150.2280090122823 7.37551179241791e-08
    vertex 114.86026120246225 -146.69247607747943 2.8867508349308646
  endloop
endfacet
facet normal 0.40824824259107345 0.7071067836445446 -0.5773503000303778
  outer loop
    vertex 116.90150184230156 -150.2280090122823 7.37551179241791e-08
    vertex 116.49325446396897 -146.692476089161 4.041451232381985
    vertex 117.71799862643813 -148.81379546650638 2.3094010888321255
  endloop
endfacet
facet normal 0.40824824259107345 0.7071067836445446 -0.5773503000303778
  outer loop
    vertex 116.90150184230156 -150.2280090122823 7.37551179241791e-08
    vertex 117.71799862643813 -148.81379546650638 2.3094010888321255
    vertex 120.98398495956903 -150.22800904148542 2.8867510415729534
  endloop
endfacet
facet normal 0.40824824259107345 0.7071067836445446 -0.5773503000303778
  outer loop
    vertex 120.98398495956903 -150.22800904148542 2.8867510415729534
    vertex 117.71799862643813 -148.81379546650638 2.3094010888321255
    vertex 120.16748850653237 -148.8137954840279 4.041451676405203
  endloop
endfacet
facet normal 0.4082482386850559 -0.707106778728751 -0.5773503088129414
  outer loop
    vertex 120.16748836187436 -161.54171754538572 4.041451519933385
    vertex 116.90150169329051 -160.12750394889304 -7.375513343399475e-08
    vertex 120.98398484705722 -160.12750397809702 2.8867509198726244
  endloop
endfacet
facet normal 0.4082482386850559 -0.707106778728751 -0.5773503088129414
  outer loop
    vertex 116.90150169329051 -160.12750394889304 -7.375513343399475e-08
    vertex 120.16748836187436 -161.54171754538572 4.041451519933385
    vertex 117.71799846961433 -161.54171752786326 2.309400923756733
  endloop
endfacet
facet normal 0.4082482386850559 -0.707106778728751 -0.5773503088129414
  outer loop
    vertex 117.71799846961433 -161.54171752786326 2.309400923756733
    vertex 114.86026048033334 -163.66303786711472 2.8867514263967666
    vertex 116.90150169329051 -160.12750394889304 -7.375513343399475e-08
  endloop
endfacet
facet normal 0.4082482386850559 -0.707106778728751 -0.5773503088129414
  outer loop
    vertex 114.86026048033334 -163.66303786711472 2.8867514263967666
    vertex 117.71799846961433 -161.54171752786326 2.309400923756733
    vertex 116.49325374184006 -163.66303787879633 4.041451823847883
  endloop
endfacet
facet normal -0.4082482386851052 0.7071067787287149 0.5773503088129508
  outer loop
    vertex 116.49325372485447 -150.93511580668218 2.3094011641476295
    vertex 118.12624727750212 -153.7635429646227 6.928203159171239
    vertex 119.75924024786785 -150.9351158300454 4.618801959049805
  endloop
endfacet
facet normal -0.4082482386851052 0.7071067787287149 0.5773503088129508
  outer loop
    vertex 118.12624727750212 -153.7635429646227 6.928203159171239
    vertex 116.49325372485447 -150.93511580668218 2.3094011641476295
    vertex 115.67675723967224 -152.3493293739712 3.4641017642083742
  endloop
endfacet
facet normal -0.40824824259108755 -0.7071067836447272 0.5773503000301441
  outer loop
    vertex 116.49325372485447 -150.93511580668218 2.3094011641476295
    vertex 116.90150214125602 -150.22800903379542 3.464101688892845
    vertex 114.86026134803274 -148.1066896506089 4.618801633717187
  endloop
endfacet
facet normal -0.40824824259108755 -0.7071067836447272 0.5773503000301441
  outer loop
    vertex 116.90150214125602 -150.22800903379542 3.464101688892845
    vertex 116.49325372485447 -150.93511580668218 2.3094011641476295
    vertex 119.75924024786785 -150.9351158300454 4.618801959049805
  endloop
endfacet
facet normal -0.40824824259108755 -0.7071067836447272 0.5773503000301441
  outer loop
    vertex 116.90150214125602 -150.22800903379542 3.464101688892845
    vertex 119.75924024786785 -150.9351158300454 4.618801959049805
    vertex 119.35099202135025 -150.22800905131695 5.196152276465944
  endloop
endfacet
facet normal -0.40824824259108755 -0.7071067836447272 0.5773503000301441
  outer loop
    vertex 115.67675797878685 -148.10668965645007 5.196151832442693
    vertex 114.86026134803274 -148.1066896506089 4.618801633717187
    vertex 116.90150214125602 -150.22800903379542 3.464101688892845
  endloop
endfacet
facet normal 0.8164966337949835 -1.1109006563618008e-08 0.577350194424026
  outer loop
    vertex 116.49325372485447 -150.93511580668218 2.3094011641476295
    vertex 113.22726837766702 -150.93511678518604 6.928202833838721
    vertex 115.67675723967224 -152.3493293739712 3.4641017642083742
  endloop
endfacet
facet normal 0.8164966337949835 -1.1109006563618008e-08 0.577350194424026
  outer loop
    vertex 113.22726837766702 -150.93511678518604 6.928202833838721
    vertex 116.49325372485447 -150.93511580668218 2.3094011641476295
    vertex 114.86026134803274 -148.1066896506089 4.618801633717187
  endloop
endfacet
facet normal 0.5773501987254821 3.4758981248828036e-09 -0.8164966307533954
  outer loop
    vertex 116.90150184230156 -150.2280090122823 7.37551179241791e-08
    vertex 120.98398484705722 -160.12750397809702 2.8867509198726244
    vertex 116.90150169329051 -160.12750394889304 -7.375513343399475e-08
  endloop
endfacet
facet normal 0.5773501987254821 3.4758981248828036e-09 -0.8164966307533954
  outer loop
    vertex 120.98398484705722 -160.12750397809702 2.8867509198726244
    vertex 116.90150184230156 -150.2280090122823 7.37551179241791e-08
    vertex 120.98398495956903 -150.22800904148542 2.8867510415729534
  endloop
endfacet
facet normal -0.8164966307533461 5.8408075665661495e-09 -0.5773501987255516
  outer loop
    vertex 105.47055059214699 -157.29907777651198 4.041452117777741
    vertex 108.32828828247419 -155.1777574157478 -4.088951399694451e-14
    vertex 106.2870470695171 -158.71329133396952 2.8867515001518536
  endloop
endfacet
facet normal -0.8164966307533461 5.8408075665661495e-09 -0.5773501987255516
  outer loop
    vertex 108.32828828247419 -155.1777574157478 -4.088951399694451e-14
    vertex 105.47055059214699 -157.29907777651198 4.041452117777741
    vertex 106.69529531992123 -155.17775742557902 2.3094012176865983
  endloop
endfacet
facet normal -0.8164966307533461 5.8408075665661495e-09 -0.5773501987255516
  outer loop
    vertex 106.69529531992123 -155.17775742557902 2.3094012176865983
    vertex 106.2870470890489 -151.64222352210408 2.8867515440646536
    vertex 108.32828828247419 -155.1777574157478 -4.088951399694451e-14
  endloop
endfacet
facet normal -0.8164966307533461 5.8408075665661495e-09 -0.5773501987255516
  outer loop
    vertex 106.2870470890489 -151.64222352210408 2.8867515440646536
    vertex 106.69529531992123 -155.17775742557902 2.3094012176865983
    vertex 105.47055060386604 -153.0564370893927 4.041452144125432
  endloop
endfacet
facet normal 0.8164966307533461 -5.8408075665661495e-09 0.5773501987255516
  outer loop
    vertex 117.71799846961433 -161.54171752786326 2.309400923756733
    vertex 115.67675726446998 -162.24882432133887 5.196152441473744
    vertex 116.49325374184006 -163.66303787879633 4.041451823847883
  endloop
endfacet
facet normal 0.8164966307533461 -5.8408075665661495e-09 0.5773501987255516
  outer loop
    vertex 115.67675726446998 -162.24882432133887 5.196152441473744
    vertex 117.71799846961433 -161.54171752786326 2.309400923756733
    vertex 116.90150199224425 -160.12750397040583 3.4641015413825937
  endloop
endfacet
facet normal -0.4082482386850559 0.707106778728751 0.5773503088129414
  outer loop
    vertex 116.49325372574864 -159.4203971809212 2.3094011286584317
    vertex 119.35099188450427 -160.1275039879282 5.196152137559245
    vertex 119.75924012709571 -159.42039720428386 4.618801837528897
  endloop
endfacet
facet normal -0.4082482386850559 0.707106778728751 0.5773503088129414
  outer loop
    vertex 119.35099188450427 -160.1275039879282 5.196152137559245
    vertex 116.49325372574864 -159.4203971809212 2.3094011286584317
    vertex 116.90150199224425 -160.12750397040583 3.4641015413825937
  endloop
endfacet
facet normal -0.4082482386850559 0.707106778728751 0.5773503088129414
  outer loop
    vertex 116.90150199224425 -160.12750397040583 3.4641015413825937
    vertex 116.49325372574864 -159.4203971809212 2.3094011286584317
    vertex 114.86026075538228 -162.24882431549977 4.6188023287808955
  endloop
endfacet
facet normal -0.4082482386850559 0.707106778728751 0.5773503088129414
  outer loop
    vertex 116.90150199224425 -160.12750397040583 3.4641015413825937
    vertex 114.86026075538228 -162.24882431549977 4.6188023287808955
    vertex 115.67675726446998 -162.24882432133887 5.196152441473744
  endloop
endfacet
facet normal -0.40824824104642254 -0.7071067806007881 0.5773503048504357
  outer loop
    vertex 116.49325374184006 -163.66303787879633 4.041451823847883
    vertex 114.86026075538228 -162.24882431549977 4.6188023287808955
    vertex 114.86026048033334 -163.66303786711472 2.8867514263967666
  endloop
endfacet
facet normal -0.40824824104642254 -0.7071067806007881 0.5773503048504357
  outer loop
    vertex 114.86026075538228 -162.24882431549977 4.6188023287808955
    vertex 116.49325374184006 -163.66303787879633 4.041451823847883
    vertex 115.67675726446998 -162.24882432133887 5.196152441473744
  endloop
endfacet
facet normal -0.40824824104642254 -0.7071067806007881 0.5773503048504357
  outer loop
    vertex 114.86026048033334 -163.66303786711472 2.8867514263967666
    vertex 105.47055059214699 -157.29907777651198 4.041452117777741
    vertex 106.2870470695171 -158.71329133396952 2.8867515001518536
  endloop
endfacet
facet normal -0.40824824104642254 -0.7071067806007881 0.5773503048504357
  outer loop
    vertex 105.47055059214699 -157.29907777651198 4.041452117777741
    vertex 114.86026048033334 -163.66303786711472 2.8867514263967666
    vertex 107.51179209233875 -158.00618456692246 4.61880220641581
  endloop
endfacet
facet normal -0.40824824104642254 -0.7071067806007881 0.5773503048504357
  outer loop
    vertex 107.51179209233875 -158.00618456692246 4.61880220641581
    vertex 114.86026048033334 -163.66303786711472 2.8867514263967666
    vertex 110.77777860822786 -158.0061845585526 6.928202979006521
  endloop
endfacet
facet normal -0.40824824104642254 -0.7071067806007881 0.5773503048504357
  outer loop
    vertex 110.77777860822786 -158.0061845585526 6.928202979006521
    vertex 114.86026048033334 -163.66303786711472 2.8867514263967666
    vertex 110.77777871760807 -157.06337548535734 8.082903545551469
  endloop
endfacet
facet normal -0.40824824104642254 -0.7071067806007881 0.5773503048504357
  outer loop
    vertex 110.77777871760807 -157.06337548535734 8.082903545551469
    vertex 114.86026048033334 -163.66303786711472 2.8867514263967666
    vertex 113.22726946574807 -159.42039811719656 6.928203567004159
  endloop
endfacet
facet normal -0.40824824104642254 -0.7071067806007881 0.5773503048504357
  outer loop
    vertex 110.77777871760807 -157.06337548535734 8.082903545551469
    vertex 113.22726946574807 -159.42039811719656 6.928203567004159
    vertex 114.04376504832413 -158.94899364100812 8.08290325198541
  endloop
endfacet
facet normal -0.40824824104642254 -0.7071067806007881 0.5773503048504357
  outer loop
    vertex 113.22726946574807 -159.42039811719656 6.928203567004159
    vertex 114.86026048033334 -163.66303786711472 2.8867514263967666
    vertex 114.86026075538228 -162.24882431549977 4.6188023287808955
  endloop
endfacet
facet normal -0.40824824104642254 -0.7071067806007881 0.5773503048504357
  outer loop
    vertex 107.10354385365368 -157.29907778819364 5.196152515228842
    vertex 105.47055059214699 -157.29907777651198 4.041452117777741
    vertex 107.51179209233875 -158.00618456692246 4.61880220641581
  endloop
endfacet
facet normal -0.9999999999999963 3.6341195608358134e-09 8.630050638003262e-08
  outer loop
    vertex 110.77777860822786 -158.0061845585526 6.928202979006521
    vertex 110.77777863097755 -152.34933034079322 6.928203036448378
    vertex 110.77777832421171 -155.17775744402593 3.4641014037449294
  endloop
endfacet
facet normal -0.9999999999999963 3.6341195608358134e-09 8.630050638003262e-08
  outer loop
    vertex 110.77777863097755 -152.34933034079322 6.928203036448378
    vertex 110.77777860822786 -158.0061845585526 6.928202979006521
    vertex 110.77777871760807 -157.06337548535734 8.082903545551469
  endloop
endfacet
facet normal -0.9999999999999963 3.6341195608358134e-09 8.630050638003262e-08
  outer loop
    vertex 110.77777863097755 -152.34933034079322 6.928203036448378
    vertex 110.77777871760807 -157.06337548535734 8.082903545551469
    vertex 110.7777787280253 -153.29213938954575 8.08290356897186
  endloop
endfacet
facet normal -0.9914448610132663 0.13052619495862813 8.637267753797141e-08
  outer loop
    vertex 115.97561641418216 -155.69539527695707 3.000000053863661
    vertex 116.0437645041326 -155.17775716831017 5.119697793487532e-08
    vertex 115.9756161552809 -155.69539525832695 5.386367077919729e-08
  endloop
endfacet
facet normal -0.9914448610132663 0.13052619495862813 8.637267753797141e-08
  outer loop
    vertex 116.0437645041326 -155.17775716831017 5.119697793487532e-08
    vertex 115.97561641418216 -155.69539527695707 3.000000053863661
    vertex 116.04376476303385 -155.1777571869403 3.0000000511969738
  endloop
endfacet
facet normal -0.7933533386097038 0.6087614312001305 7.224716030984622e-08
  outer loop
    vertex 115.45797806259931 -156.5919707290652 9.296827007121422e-08
    vertex 115.77581556784052 -156.17775718620015 3.000000068111058
    vertex 115.77581530893927 -156.17775716757 6.811105511816961e-08
  endloop
endfacet
facet normal -0.7933533386097038 0.6087614312001305 7.224716030984622e-08
  outer loop
    vertex 115.77581556784052 -156.17775718620015 3.000000068111058
    vertex 115.45797806259931 -156.5919707290652 9.296827007121422e-08
    vertex 115.45797832150058 -156.5919707476953 3.00000009296826
  endloop
endfacet
facet normal -0.13052618948139247 0.9914448617343617 1.742138433513674e-08
  outer loop
    vertex 114.04376449860814 -157.1777571627857 2.1137773349444443e-07
    vertex 114.56140284790267 -157.10960883542384 3.0000001671285412
    vertex 114.5614025890014 -157.1096088167937 1.6712854949973988e-07
  endloop
endfacet
facet normal -0.13052618948139247 0.9914448617343617 1.742138433513674e-08
  outer loop
    vertex 114.56140284790267 -157.10960883542384 3.0000001671285412
    vertex 114.04376449860814 -157.1777571627857 2.1137773349444443e-07
    vertex 114.04376475750938 -157.17775718141579 3.0000002113777433
  endloop
endfacet
facet normal 0.1305261949586277 0.9914448610132701 -5.107544887028582e-09
  outer loop
    vertex 113.52612666749259 -157.10960883256413 3.0000002564733195
    vertex 114.04376449860814 -157.1777571627857 2.1137773349444443e-07
    vertex 113.52612640859134 -157.109608813934 2.564733290189025e-07
  endloop
endfacet
facet normal 0.1305261949586277 0.9914448610132701 -5.107544887028582e-09
  outer loop
    vertex 114.04376449860814 -157.1777571627857 2.1137773349444443e-07
    vertex 113.52612666749259 -157.10960883256413 3.0000002564733195
    vertex 114.04376475750938 -157.17775718141579 3.0000002113777433
  endloop
endfacet
facet normal -0.9914448617343481 -0.1305261894814687 8.4751529794147e-08
  outer loop
    vertex 116.04376476303385 -155.1777571869403 3.0000000511969738
    vertex 115.97561615814055 -154.66011907791682 6.029276995445088e-08
    vertex 116.0437645041326 -155.17775716831017 5.119697793487532e-08
  endloop
endfacet
facet normal -0.9914448617343481 -0.1305261894814687 8.4751529794147e-08
  outer loop
    vertex 115.97561615814055 -154.66011907791682 6.029276995445088e-08
    vertex 116.04376476303385 -155.1777571869403 3.0000000511969738
    vertex 115.9756164170418 -154.660119096547 3.0000000602927814
  endloop
endfacet
facet normal -0.9238795314542193 0.38268343491706736 8.210766982291727e-08
  outer loop
    vertex 115.77581556784052 -156.17775718620015 3.000000068111058
    vertex 115.9756161552809 -155.69539525832695 5.386367077919729e-08
    vertex 115.77581530893927 -156.17775716757 6.811105511816961e-08
  endloop
endfacet
facet normal -0.9238795314542193 0.38268343491706736 8.210766982291727e-08
  outer loop
    vertex 115.9756161552809 -155.69539525832695 5.386367077919729e-08
    vertex 115.77581556784052 -156.17775718620015 3.000000068111058
    vertex 115.97561641418216 -155.69539527695707 3.000000053863661
  endloop
endfacet
facet normal -0.608761426817265 0.7933533419727962 5.7463126257317754e-08
  outer loop
    vertex 115.04376449934826 -156.90980797311676 1.267412630734377e-07
    vertex 115.45797832150058 -156.5919707476953 3.00000009296826
    vertex 115.45797806259931 -156.5919707290652 9.296827007121422e-08
  endloop
endfacet
facet normal -0.608761426817265 0.7933533419727962 5.7463126257317754e-08
  outer loop
    vertex 115.45797832150058 -156.5919707476953 3.00000009296826
    vertex 115.04376449934826 -156.90980797311676 1.267412630734377e-07
    vertex 115.04376475824954 -156.90980799174687 3.0000001267412606
  endloop
endfacet
facet normal -0.38268342981316056 0.9238795335683297 3.8763075083103615e-08
  outer loop
    vertex 114.5614025890014 -157.1096088167937 1.6712854949973988e-07
    vertex 115.04376475824954 -156.90980799174687 3.0000001267412606
    vertex 115.04376449934826 -156.90980797311676 1.267412630734377e-07
  endloop
endfacet
facet normal -0.38268342981316056 0.9238795335683297 3.8763075083103615e-08
  outer loop
    vertex 115.04376475824954 -156.90980799174687 3.0000001267412606
    vertex 114.5614025890014 -157.1096088167937 1.6712854949973988e-07
    vertex 114.56140284790267 -157.10960883542384 3.0000001671285412
  endloop
endfacet
facet normal 0.13052618948142947 -0.9914448617343569 -1.742138444615904e-08
  outer loop
    vertex 114.0437647685583 -153.17775718141579 3.0000002362178964
    vertex 113.52612641926376 -153.24590550877772 2.804670885647731e-07
    vertex 114.04376450965704 -153.17775716278572 2.3621791161998473e-07
  endloop
endfacet
facet normal 0.13052618948142947 -0.9914448617343569 -1.742138444615904e-08
  outer loop
    vertex 113.52612641926376 -153.24590550877772 2.804670885647731e-07
    vertex 114.0437647685583 -153.17775718141579 3.0000002362178964
    vertex 113.52612667816501 -153.24590552740787 3.0000002804670913
  endloop
endfacet
facet normal 0.9238795314542193 -0.38268343491706736 -8.210766982291727e-08
  outer loop
    vertex 112.31171369932594 -154.1777571580014 3.7948457025649414e-07
    vertex 112.11191311188551 -154.66011908587458 3.0000003937319786
    vertex 112.11191285298429 -154.6601190672444 3.9373198138514806e-07
  endloop
endfacet
facet normal 0.9238795314542193 -0.38268343491706736 -8.210766982291727e-08
  outer loop
    vertex 112.11191311188551 -154.66011908587458 3.0000003937319786
    vertex 112.31171369932594 -154.1777571580014 3.7948457025649414e-07
    vertex 112.3117139582272 -154.1777571766315 3.0000003794845282
  endloop
endfacet
facet normal 0.608761431200099 0.7933533386097302 -4.760960242711222e-08
  outer loop
    vertex 112.62955119675438 -156.59197073988256 3.0000003370626924
    vertex 113.04376449934826 -156.90980796759234 2.9934210840076856e-07
    vertex 112.62955093785312 -156.59197072125244 3.370626963428158e-07
  endloop
endfacet
facet normal 0.608761431200099 0.7933533386097302 -4.760960242711222e-08
  outer loop
    vertex 113.04376449934826 -156.90980796759234 2.9934210840076856e-07
    vertex 112.62955119675438 -156.59197073988256 3.0000003370626924
    vertex 113.0437647582495 -156.90980798622246 3.000000299342113
  endloop
endfacet
facet normal 0.7933533419727657 0.608761426817304 -6.468628555023059e-08
  outer loop
    vertex 112.3117139527027 -156.1777571766315 3.0000003670644833
    vertex 112.62955093785312 -156.59197072125244 3.370626963428158e-07
    vertex 112.3117136938015 -156.17775715800138 3.6706448894863183e-07
  endloop
endfacet
facet normal 0.7933533419727657 0.608761426817304 -6.468628555023059e-08
  outer loop
    vertex 112.62955093785312 -156.59197072125244 3.370626963428158e-07
    vertex 112.3117139527027 -156.1777571766315 3.0000003670644833
    vertex 112.62955119675438 -156.59197073988256 3.0000003370626924
  endloop
endfacet
facet normal -0.3826834349170648 -0.9238795314542239 2.728840348131812e-08
  outer loop
    vertex 115.04376450891688 -153.44570635797902 1.4825356914327514e-07
    vertex 114.56140285857511 -153.24590553026752 3.000000191122319
    vertex 114.56140259967385 -153.24590551163735 1.911223287853758e-07
  endloop
endfacet
facet normal -0.3826834349170648 -0.9238795314542239 2.728840348131812e-08
  outer loop
    vertex 114.56140285857511 -153.24590553026752 3.000000191122319
    vertex 115.04376450891688 -153.44570635797902 1.4825356914327514e-07
    vertex 115.04376476781812 -153.44570637660917 3.0000001482535326
  endloop
endfacet
facet normal -0.608761431200126 -0.7933533386097095 4.760960237160107e-08
  outer loop
    vertex 115.45797807041207 -153.76354360431895 1.1053294877161334e-07
    vertex 115.04376476781812 -153.44570637660917 3.0000001482535326
    vertex 115.04376450891688 -153.44570635797902 1.4825356914327514e-07
  endloop
endfacet
facet normal -0.608761431200126 -0.7933533386097095 4.760960237160107e-08
  outer loop
    vertex 115.04376476781812 -153.44570637660917 3.0000001482535326
    vertex 115.45797807041207 -153.76354360431895 1.1053294877161334e-07
    vertex 115.45797832931332 -153.76354362294907 3.0000001105329335
  endloop
endfacet
facet normal -0.7933533419727866 -0.6087614268172769 6.46862856612529e-08
  outer loop
    vertex 115.7758153144637 -154.17775716757 8.053113078609896e-08
    vertex 115.45797832931332 -153.76354362294907 3.0000001105329335
    vertex 115.45797807041207 -153.76354360431895 1.1053294877161334e-07
  endloop
endfacet
facet normal -0.7933533419727866 -0.6087614268172769 6.46862856612529e-08
  outer loop
    vertex 115.45797832931332 -153.76354362294907 3.0000001105329335
    vertex 115.7758153144637 -154.17775716757 8.053113078609896e-08
    vertex 115.77581557336498 -154.17775718620015 3.0000000805311466
  endloop
endfacet
facet normal -0.9238795335683432 -0.382683429813122 7.735470536340827e-08
  outer loop
    vertex 115.9756164170418 -154.660119096547 3.0000000602927814
    vertex 115.7758153144637 -154.17775716757 8.053113078609896e-08
    vertex 115.97561615814055 -154.66011907791682 6.029276995445088e-08
  endloop
endfacet
facet normal -0.9238795335683432 -0.382683429813122 7.735470536340827e-08
  outer loop
    vertex 115.7758153144637 -154.17775716757 8.053113078609896e-08
    vertex 115.9756164170418 -154.660119096547 3.0000000602927814
    vertex 115.77581557336498 -154.17775718620015 3.0000000805311466
  endloop
endfacet
facet normal -0.13052619495858525 -0.9914448610132757 5.107544887028581e-09
  outer loop
    vertex 114.56140259967385 -153.24590551163735 1.911223287853758e-07
    vertex 114.0437647685583 -153.17775718141579 3.0000002362178964
    vertex 114.04376450965704 -153.17775716278572 2.3621791161998473e-07
  endloop
endfacet
facet normal -0.13052619495858525 -0.9914448610132757 5.107544887028581e-09
  outer loop
    vertex 114.0437647685583 -153.17775718141579 3.0000002362178964
    vertex 114.56140259967385 -153.24590551163735 1.911223287853758e-07
    vertex 114.56140285857511 -153.24590553026752 3.000000191122319
  endloop
endfacet
facet normal 0.9238795335683647 0.38268342981306985 -7.735470541891942e-08
  outer loop
    vertex 112.11191285012465 -155.6953952476545 3.873028610601459e-07
    vertex 112.3117139527027 -156.1777571766315 3.0000003670644833
    vertex 112.3117136938015 -156.17775715800138 3.6706448894863183e-07
  endloop
endfacet
facet normal 0.9238795335683647 0.38268342981306985 -7.735470541891942e-08
  outer loop
    vertex 112.3117139527027 -156.1777571766315 3.0000003670644833
    vertex 112.11191285012465 -155.6953952476545 3.873028610601459e-07
    vertex 112.11191310902589 -155.69539526628466 3.0000003873028582
  endloop
endfacet
facet normal 0.3826834349170648 0.9238795314542239 -2.728840348131812e-08
  outer loop
    vertex 113.0437647582495 -156.90980798622246 3.000000299342113
    vertex 113.52612640859134 -157.109608813934 2.564733290189025e-07
    vertex 113.04376449934826 -156.90980796759234 2.9934210840076856e-07
  endloop
endfacet
facet normal 0.3826834349170648 0.9238795314542239 -2.728840348131812e-08
  outer loop
    vertex 113.52612640859134 -157.109608813934 2.564733290189025e-07
    vertex 113.0437647582495 -156.90980798622246 3.000000299342113
    vertex 113.52612666749259 -157.10960883256413 3.0000002564733195
  endloop
endfacet
facet normal 0.9914448617343419 0.1305261894815168 -8.475152984965817e-08
  outer loop
    vertex 112.04376450413257 -155.1777571572612 3.9639862347007333e-07
    vertex 112.11191310902589 -155.69539526628466 3.0000003873028582
    vertex 112.11191285012465 -155.6953952476545 3.873028610601459e-07
  endloop
endfacet
facet normal 0.9914448617343419 0.1305261894815168 -8.475152984965817e-08
  outer loop
    vertex 112.11191310902589 -155.69539526628466 3.0000003873028582
    vertex 112.04376450413257 -155.1777571572612 3.9639862347007333e-07
    vertex 112.0437647630338 -155.17775717589137 3.0000003963986464
  endloop
endfacet
facet normal 0.9914448610132599 -0.13052619495867626 -8.637267748246025e-08
  outer loop
    vertex 112.11191285298429 -154.6601190672444 3.9373198138514806e-07
    vertex 112.0437647630338 -155.17775717589137 3.0000003963986464
    vertex 112.04376450413257 -155.1777571572612 3.9639862347007333e-07
  endloop
endfacet
facet normal 0.9914448610132599 -0.13052619495867626 -8.637267748246025e-08
  outer loop
    vertex 112.0437647630338 -155.17775717589137 3.0000003963986464
    vertex 112.11191285298429 -154.6601190672444 3.9373198138514806e-07
    vertex 112.11191311188551 -154.66011908587458 3.0000003937319786
  endloop
endfacet
facet normal 0.79335333860972 -0.6087614312001097 -7.224716030290734e-08
  outer loop
    vertex 112.62955120456712 -153.76354361513634 3.000000354627378
    vertex 112.31171369932594 -154.1777571580014 3.7948457025649414e-07
    vertex 112.62955094566587 -153.76354359650617 3.5462739337299706e-07
  endloop
endfacet
facet normal 0.79335333860972 -0.6087614312001097 -7.224716030290734e-08
  outer loop
    vertex 112.31171369932594 -154.1777571580014 3.7948457025649414e-07
    vertex 112.62955120456712 -153.76354361513634 3.000000354627378
    vertex 112.3117139582272 -154.1777571766315 3.0000003794845282
  endloop
endfacet
facet normal 0.6087614268172921 -0.7933533419727754 -5.746312639609563e-08
  outer loop
    vertex 113.04376476781816 -153.44570637108467 3.0000003208543413
    vertex 112.62955094566587 -153.76354359650617 3.5462739337299706e-07
    vertex 113.04376450891688 -153.44570635245458 3.208543623012261e-07
  endloop
endfacet
facet normal 0.6087614268172921 -0.7933533419727754 -5.746312639609563e-08
  outer loop
    vertex 112.62955094566587 -153.76354359650617 3.5462739337299706e-07
    vertex 113.04376476781816 -153.44570637108467 3.0000003208543413
    vertex 112.62955120456712 -153.76354361513634 3.000000354627378
  endloop
endfacet
facet normal 0.3826834298131021 -0.923879533568354 -3.8763075083103615e-08
  outer loop
    vertex 113.52612667816501 -153.24590552740787 3.0000002804670913
    vertex 113.04376450891688 -153.44570635245458 3.208543623012261e-07
    vertex 113.52612641926376 -153.24590550877772 2.804670885647731e-07
  endloop
endfacet
facet normal 0.3826834298131021 -0.923879533568354 -3.8763075083103615e-08
  outer loop
    vertex 113.04376450891688 -153.44570635245458 3.208543623012261e-07
    vertex 113.52612667816501 -153.24590552740787 3.0000002804670913
    vertex 113.04376476781816 -153.44570637108467 3.0000003208543413
  endloop
endfacet
facet normal -8.630041561930035e-08 6.210047753807402e-09 -0.9999999999999963
  outer loop
    vertex 116.04376476303385 -155.1777571869403 3.0000000511969738
    vertex 114.62111503381831 -154.60040691382088 3.0000001775576246
    vertex 114.45201305545095 -154.47065040135686 3.0000001929569806
  endloop
endfacet
facet normal -8.630041561930035e-08 6.210047753807402e-09 -0.9999999999999963
  outer loop
    vertex 114.62111503381831 -154.60040691382088 3.0000001775576246
    vertex 116.04376476303385 -155.1777571869403 3.0000000511969738
    vertex 115.97561641418216 -155.69539527695707 3.000000053863661
  endloop
endfacet
facet normal -8.630041561930035e-08 6.210047753807402e-09 -0.9999999999999963
  outer loop
    vertex 114.62111503381831 -154.60040691382088 3.0000001775576246
    vertex 115.97561641418216 -155.69539527695707 3.000000053863661
    vertex 114.75087154534813 -154.7695088929051 3.0000001653094515
  endloop
endfacet
facet normal -8.630041561930035e-08 6.210047753807402e-09 -0.9999999999999963
  outer loop
    vertex 114.75087154534813 -154.7695088929051 3.0000001653094515
    vertex 115.97561641418216 -155.69539527695707 3.000000053863661
    vertex 114.8324398982125 -154.9664323181891 3.0000001570471566
  endloop
endfacet
facet normal -8.630041561930035e-08 6.210047753807402e-09 -0.9999999999999963
  outer loop
    vertex 114.8324398982125 -154.9664323181891 3.0000001570471566
    vertex 115.97561641418216 -155.69539527695707 3.000000053863661
    vertex 114.8602613439617 -155.1777571836712 3.000000153333794
  endloop
endfacet
facet normal -8.630041561930035e-08 6.210047753807402e-09 -0.9999999999999963
  outer loop
    vertex 114.8602613439617 -155.1777571836712 3.000000153333794
    vertex 115.97561641418216 -155.69539527695707 3.000000053863661
    vertex 115.77581556784052 -156.17775718620015 3.000000068111058
  endloop
endfacet
facet normal -8.630041561930035e-08 6.210047753807402e-09 -0.9999999999999963
  outer loop
    vertex 114.8602613439617 -155.1777571836712 3.000000153333794
    vertex 115.77581556784052 -156.17775718620015 3.000000068111058
    vertex 114.83243989704506 -155.38908204899954 3.0000001544224983
  endloop
endfacet
facet normal -8.630041561930035e-08 6.210047753807402e-09 -0.9999999999999963
  outer loop
    vertex 114.83243989704506 -155.38908204899954 3.0000001544224983
    vertex 115.77581556784052 -156.17775718620015 3.000000068111058
    vertex 114.75087154309284 -155.58600547383298 3.0000001602389723
  endloop
endfacet
facet normal -8.630041561930035e-08 6.210047753807402e-09 -0.9999999999999963
  outer loop
    vertex 114.75087154309284 -155.58600547383298 3.0000001602389723
    vertex 115.77581556784052 -156.17775718620015 3.000000068111058
    vertex 114.6211150306288 -155.75510745220026 3.0000001703868797
  endloop
endfacet
facet normal -8.630041561930035e-08 6.210047753807402e-09 -0.9999999999999963
  outer loop
    vertex 114.6211150306288 -155.75510745220026 3.0000001703868797
    vertex 115.77581556784052 -156.17775718620015 3.000000068111058
    vertex 115.45797832150058 -156.5919707476953 3.00000009296826
  endloop
endfacet
facet normal -8.630041561930035e-08 6.210047753807402e-09 -0.9999999999999963
  outer loop
    vertex 114.6211150306288 -155.75510745220026 3.0000001703868797
    vertex 115.45797832150058 -156.5919707476953 3.00000009296826
    vertex 114.4520130515446 -155.88486396373014 3.0000001841746435
  endloop
endfacet
facet normal -8.630041561930035e-08 6.210047753807402e-09 -0.9999999999999963
  outer loop
    vertex 114.4520130515446 -155.88486396373014 3.0000001841746435
    vertex 115.45797832150058 -156.5919707476953 3.00000009296826
    vertex 114.25508962626058 -155.96643231659448 3.000000200662686
  endloop
endfacet
facet normal -8.630041561930035e-08 6.210047753807402e-09 -0.9999999999999963
  outer loop
    vertex 114.25508962626058 -155.96643231659448 3.000000200662686
    vertex 115.45797832150058 -156.5919707476953 3.00000009296826
    vertex 115.04376475824954 -156.90980799174687 3.0000001267412606
  endloop
endfacet
facet normal -8.630041561930035e-08 6.210047753807402e-09 -0.9999999999999963
  outer loop
    vertex 114.25508962626058 -155.96643231659448 3.000000200662686
    vertex 115.04376475824954 -156.90980799174687 3.0000001267412606
    vertex 114.04376476077853 -155.99425376234367 3.000000218727335
  endloop
endfacet
facet normal -8.630041561930035e-08 6.210047753807402e-09 -0.9999999999999963
  outer loop
    vertex 114.04376476077853 -155.99425376234367 3.000000218727335
    vertex 115.04376475824954 -156.90980799174687 3.0000001267412606
    vertex 113.83243989545014 -155.966432315427 3.000000237137548
  endloop
endfacet
facet normal -8.630041561930035e-08 6.210047753807402e-09 -0.9999999999999963
  outer loop
    vertex 113.83243989545014 -155.966432315427 3.000000237137548
    vertex 115.04376475824954 -156.90980799174687 3.0000001267412606
    vertex 113.63551647061675 -155.88486396147482 3.0000002546386577
  endloop
endfacet
facet normal -8.630041561930035e-08 6.210047753807402e-09 -0.9999999999999963
  outer loop
    vertex 113.63551647061675 -155.88486396147482 3.0000002546386577
    vertex 115.04376475824954 -156.90980799174687 3.0000001267412606
    vertex 112.0437647630338 -155.17775717589137 3.0000003963986464
  endloop
endfacet
facet normal -8.630041561930035e-08 6.210047753807402e-09 -0.9999999999999963
  outer loop
    vertex 112.0437647630338 -155.17775717589137 3.0000003963986464
    vertex 115.04376475824954 -156.90980799174687 3.0000001267412606
    vertex 112.11191310902589 -155.69539526628466 3.0000003873028582
  endloop
endfacet
facet normal -8.630041561930035e-08 6.210047753807402e-09 -0.9999999999999963
  outer loop
    vertex 112.11191310902589 -155.69539526628466 3.0000003873028582
    vertex 115.04376475824954 -156.90980799174687 3.0000001267412606
    vertex 114.56140284790267 -157.10960883542384 3.0000001671285412
  endloop
endfacet
facet normal -8.630041561930035e-08 6.210047753807402e-09 -0.9999999999999963
  outer loop
    vertex 112.11191310902589 -155.69539526628466 3.0000003873028582
    vertex 114.56140284790267 -157.10960883542384 3.0000001671285412
    vertex 112.3117139527027 -156.1777571766315 3.0000003670644833
  endloop
endfacet
facet normal -8.630041561930035e-08 6.210047753807402e-09 -0.9999999999999963
  outer loop
    vertex 112.3117139527027 -156.1777571766315 3.0000003670644833
    vertex 114.56140284790267 -157.10960883542384 3.0000001671285412
    vertex 114.04376475750938 -157.17775718141579 3.0000002113777433
  endloop
endfacet
facet normal -8.630041561930035e-08 6.210047753807402e-09 -0.9999999999999963
  outer loop
    vertex 112.3117139527027 -156.1777571766315 3.0000003670644833
    vertex 114.04376475750938 -157.17775718141579 3.0000002113777433
    vertex 112.62955119675438 -156.59197073988256 3.0000003370626924
  endloop
endfacet
facet normal -8.630041561930035e-08 6.210047753807402e-09 -0.9999999999999963
  outer loop
    vertex 112.62955119675438 -156.59197073988256 3.0000003370626924
    vertex 114.04376475750938 -157.17775718141579 3.0000002113777433
    vertex 113.52612666749259 -157.10960883256413 3.0000002564733195
  endloop
endfacet
facet normal -8.630041561930035e-08 6.210047753807402e-09 -0.9999999999999963
  outer loop
    vertex 112.62955119675438 -156.59197073988256 3.0000003370626924
    vertex 113.52612666749259 -157.10960883256413 3.0000002564733195
    vertex 113.0437647582495 -156.90980798622246 3.000000299342113
  endloop
endfacet
facet normal -8.630041561930035e-08 6.210047753807402e-09 -0.9999999999999963
  outer loop
    vertex 115.45797832931332 -153.76354362294907 3.0000001105329335
    vertex 114.56140285857511 -153.24590553026752 3.000000191122319
    vertex 115.04376476781812 -153.44570637660917 3.0000001482535326
  endloop
endfacet
facet normal -8.630041561930035e-08 6.210047753807402e-09 -0.9999999999999963
  outer loop
    vertex 114.56140285857511 -153.24590553026752 3.000000191122319
    vertex 115.45797832931332 -153.76354362294907 3.0000001105329335
    vertex 114.0437647685583 -153.17775718141579 3.0000002362178964
  endloop
endfacet
facet normal -8.630041561930035e-08 6.210047753807402e-09 -0.9999999999999963
  outer loop
    vertex 114.0437647685583 -153.17775718141579 3.0000002362178964
    vertex 115.45797832931332 -153.76354362294907 3.0000001105329335
    vertex 115.77581557336498 -154.17775718620015 3.0000000805311466
  endloop
endfacet
facet normal -8.630041561930035e-08 6.210047753807402e-09 -0.9999999999999963
  outer loop
    vertex 114.0437647685583 -153.17775718141579 3.0000002362178964
    vertex 115.77581557336498 -154.17775718620015 3.0000000805311466
    vertex 113.52612667816501 -153.24590552740787 3.0000002804670913
  endloop
endfacet
facet normal -8.630041561930035e-08 6.210047753807402e-09 -0.9999999999999963
  outer loop
    vertex 113.52612667816501 -153.24590552740787 3.0000002804670913
    vertex 115.77581557336498 -154.17775718620015 3.0000000805311466
    vertex 115.9756164170418 -154.660119096547 3.0000000602927814
  endloop
endfacet
facet normal -8.630041561930035e-08 6.210047753807402e-09 -0.9999999999999963
  outer loop
    vertex 113.52612667816501 -153.24590552740787 3.0000002804670913
    vertex 115.9756164170418 -154.660119096547 3.0000000602927814
    vertex 113.04376476781816 -153.44570637108467 3.0000003208543413
  endloop
endfacet
facet normal -8.630041561930035e-08 6.210047753807402e-09 -0.9999999999999963
  outer loop
    vertex 113.04376476781816 -153.44570637108467 3.0000003208543413
    vertex 115.9756164170418 -154.660119096547 3.0000000602927814
    vertex 116.04376476303385 -155.1777571869403 3.0000000511969738
  endloop
endfacet
facet normal -8.630041561930035e-08 6.210047753807402e-09 -0.9999999999999963
  outer loop
    vertex 113.04376476781816 -153.44570637108467 3.0000003208543413
    vertex 116.04376476303385 -155.1777571869403 3.0000000511969738
    vertex 114.45201305545095 -154.47065040135686 3.0000001929569806
  endloop
endfacet
facet normal -8.630041561930035e-08 6.210047753807402e-09 -0.9999999999999963
  outer loop
    vertex 113.04376476781816 -153.44570637108467 3.0000003208543413
    vertex 114.45201305545095 -154.47065040135686 3.0000001929569806
    vertex 114.25508963061755 -154.38908204740468 3.00000021045811
  endloop
endfacet
facet normal -8.630041561930035e-08 6.210047753807402e-09 -0.9999999999999963
  outer loop
    vertex 113.04376476781816 -153.44570637108467 3.0000003208543413
    vertex 114.25508963061755 -154.38908204740468 3.00000021045811
    vertex 112.62955120456712 -153.76354361513634 3.000000354627378
  endloop
endfacet
facet normal -8.630041561930035e-08 6.210047753807402e-09 -0.9999999999999963
  outer loop
    vertex 112.62955120456712 -153.76354361513634 3.000000354627378
    vertex 114.25508963061755 -154.38908204740468 3.00000021045811
    vertex 114.0437647652892 -154.36126060048795 3.0000002288683447
  endloop
endfacet
facet normal -8.630041561930035e-08 6.210047753807402e-09 -0.9999999999999963
  outer loop
    vertex 112.62955120456712 -153.76354361513634 3.000000354627378
    vertex 114.0437647652892 -154.36126060048795 3.0000002288683447
    vertex 113.83243989980714 -154.38908204623723 3.0000002469329385
  endloop
endfacet
facet normal -8.630041561930035e-08 6.210047753807402e-09 -0.9999999999999963
  outer loop
    vertex 112.62955120456712 -153.76354361513634 3.000000354627378
    vertex 113.83243989980714 -154.38908204623723 3.0000002469329385
    vertex 113.63551647452313 -154.47065039910157 3.0000002634209753
  endloop
endfacet
facet normal -8.630041561930035e-08 6.210047753807402e-09 -0.9999999999999963
  outer loop
    vertex 112.62955120456712 -153.76354361513634 3.000000354627378
    vertex 113.63551647452313 -154.47065039910157 3.0000002634209753
    vertex 112.3117139582272 -154.1777571766315 3.0000003794845282
  endloop
endfacet
facet normal -8.630041561930035e-08 6.210047753807402e-09 -0.9999999999999963
  outer loop
    vertex 112.3117139582272 -154.1777571766315 3.0000003794845282
    vertex 113.63551647452313 -154.47065039910157 3.0000002634209753
    vertex 113.46641449543893 -154.6004069106314 3.0000002772087724
  endloop
endfacet
facet normal -8.630041561930035e-08 6.210047753807402e-09 -0.9999999999999963
  outer loop
    vertex 112.3117139582272 -154.1777571766315 3.0000003794845282
    vertex 113.46641449543893 -154.6004069106314 3.0000002772087724
    vertex 113.33665798297488 -154.76950888899879 3.0000002873566474
  endloop
endfacet
facet normal -8.630041561930035e-08 6.210047753807402e-09 -0.9999999999999963
  outer loop
    vertex 112.3117139582272 -154.1777571766315 3.0000003794845282
    vertex 113.33665798297488 -154.76950888899879 3.0000002873566474
    vertex 112.11191311188551 -154.66011908587458 3.0000003937319786
  endloop
endfacet
facet normal -8.630041561930035e-08 6.210047753807402e-09 -0.9999999999999963
  outer loop
    vertex 112.11191311188551 -154.66011908587458 3.0000003937319786
    vertex 113.33665798297488 -154.76950888899879 3.0000002873566474
    vertex 113.25508962902266 -154.96643231383212 3.000000293173195
  endloop
endfacet
facet normal -8.630041561930035e-08 6.210047753807402e-09 -0.9999999999999963
  outer loop
    vertex 112.11191311188551 -154.66011908587458 3.0000003937319786
    vertex 113.25508962902266 -154.96643231383212 3.000000293173195
    vertex 113.22726818210603 -155.17775717916052 3.0000002942617727
  endloop
endfacet
facet normal -8.630041561930035e-08 6.210047753807402e-09 -0.9999999999999963
  outer loop
    vertex 112.11191311188551 -154.66011908587458 3.0000003937319786
    vertex 113.22726818210603 -155.17775717916052 3.0000002942617727
    vertex 113.25508962785523 -155.38908204464258 3.0000002905484564
  endloop
endfacet
facet normal -8.630041561930035e-08 6.210047753807402e-09 -0.9999999999999963
  outer loop
    vertex 112.11191311188551 -154.66011908587458 3.0000003937319786
    vertex 113.25508962785523 -155.38908204464258 3.0000002905484564
    vertex 112.0437647630338 -155.17775717589137 3.0000003963986464
  endloop
endfacet
facet normal -8.630041561930035e-08 6.210047753807402e-09 -0.9999999999999963
  outer loop
    vertex 112.0437647630338 -155.17775717589137 3.0000003963986464
    vertex 113.25508962785523 -155.38908204464258 3.0000002905484564
    vertex 113.33665798071956 -155.58600546992656 3.000000282286201
  endloop
endfacet
facet normal -8.630041561930035e-08 6.210047753807402e-09 -0.9999999999999963
  outer loop
    vertex 112.0437647630338 -155.17775717589137 3.0000003963986464
    vertex 113.33665798071956 -155.58600546992656 3.000000282286201
    vertex 113.46641449224941 -155.7551074490108 3.0000002700379955
  endloop
endfacet
facet normal -8.630041561930035e-08 6.210047753807402e-09 -0.9999999999999963
  outer loop
    vertex 112.0437647630338 -155.17775717589137 3.0000003963986464
    vertex 113.46641449224941 -155.7551074490108 3.0000002700379955
    vertex 113.63551647061675 -155.88486396147482 3.0000002546386577
  endloop
endfacet
facet normal 0.38268342981312875 -0.923879533568343 -3.876307569372628e-08
  outer loop
    vertex 113.83244033846375 -154.38908207780224 8.082903079106748
    vertex 113.63551647452313 -154.47065039910157 3.0000002634209753
    vertex 113.83243989980714 -154.38908204623723 3.0000002469329385
  endloop
endfacet
facet normal 0.38268342981312875 -0.923879533568343 -3.876307569372628e-08
  outer loop
    vertex 113.63551647452313 -154.47065039910157 3.0000002634209753
    vertex 113.83244033846375 -154.38908207780224 8.082903079106748
    vertex 113.63551691317971 -154.47065043066664 8.082903095594835
  endloop
endfacet
facet normal 0.7933533419727499 0.6087614268173245 -6.468628344080685e-08
  outer loop
    vertex 113.33665841937615 -155.58600550149166 8.082903114459988
    vertex 113.46641449224941 -155.7551074490108 3.0000002700379955
    vertex 113.33665798071956 -155.58600546992656 3.000000282286201
  endloop
endfacet
facet normal 0.7933533419727499 0.6087614268173245 -6.468628344080685e-08
  outer loop
    vertex 113.46641449224941 -155.7551074490108 3.0000002700379955
    vertex 113.33665841937615 -155.58600550149166 8.082903114459988
    vertex 113.46641493090597 -155.7551074805759 8.082903102211825
  endloop
endfacet
facet normal 0.13052618948148428 -0.9914448617343496 -1.7421385500870915e-08
  outer loop
    vertex 114.04376520394581 -154.36126063205307 8.082903061042133
    vertex 113.83243989980714 -154.38908204623723 3.0000002469329385
    vertex 114.0437647652892 -154.36126060048795 3.0000002288683447
  endloop
endfacet
facet normal 0.13052618948148428 -0.9914448617343496 -1.7421385500870915e-08
  outer loop
    vertex 113.83243989980714 -154.38908204623723 3.0000002469329385
    vertex 114.04376520394581 -154.36126063205307 8.082903061042133
    vertex 113.83244033846375 -154.38908207780224 8.082903079106748
  endloop
endfacet
facet normal 0.9238795335683312 0.38268342981315107 -7.735470347602913e-08
  outer loop
    vertex 113.25508962785523 -155.38908204464258 3.0000002905484564
    vertex 113.33665841937615 -155.58600550149166 8.082903114459988
    vertex 113.33665798071956 -155.58600546992656 3.000000282286201
  endloop
endfacet
facet normal 0.9238795335683312 0.38268342981315107 -7.735470347602913e-08
  outer loop
    vertex 113.33665841937615 -155.58600550149166 8.082903114459988
    vertex 113.25508962785523 -155.38908204464258 3.0000002905484564
    vertex 113.2550900665118 -155.3890820762077 8.082903122722284
  endloop
endfacet
facet normal -0.1305261894814641 0.9914448617343521 1.7421385500870912e-08
  outer loop
    vertex 114.04376476077853 -155.99425376234367 3.000000218727335
    vertex 114.25509006491718 -155.9664323481596 8.082903032836482
    vertex 114.25508962626058 -155.96643231659448 3.000000200662686
  endloop
endfacet
facet normal -0.1305261894814641 0.9914448617343521 1.7421385500870912e-08
  outer loop
    vertex 114.25509006491718 -155.9664323481596 8.082903032836482
    vertex 114.04376476077853 -155.99425376234367 3.000000218727335
    vertex 114.0437651994351 -155.99425379390877 8.082903050901141
  endloop
endfacet
facet normal 0.13052619495864176 0.9914448610132683 -5.107543277205196e-09
  outer loop
    vertex 113.83244033410676 -155.96643234699212 8.082903069311339
    vertex 114.04376476077853 -155.99425376234367 3.000000218727335
    vertex 113.83243989545014 -155.966432315427 3.000000237137548
  endloop
endfacet
facet normal 0.13052619495864176 0.9914448610132683 -5.107543277205196e-09
  outer loop
    vertex 114.04376476077853 -155.99425376234367 3.000000218727335
    vertex 113.83244033410676 -155.96643234699212 8.082903069311339
    vertex 114.0437651994351 -155.99425379390877 8.082903050901141
  endloop
endfacet
facet normal -0.6087614268173069 0.7933533419727639 5.7463126423851194e-08
  outer loop
    vertex 114.4520130515446 -155.88486396373014 3.0000001841746435
    vertex 114.6211154692854 -155.75510748376539 8.082903002560661
    vertex 114.6211150306288 -155.75510745220026 3.0000001703868797
  endloop
endfacet
facet normal -0.6087614268173069 0.7933533419727639 5.7463126423851194e-08
  outer loop
    vertex 114.6211154692854 -155.75510748376539 8.082903002560661
    vertex 114.4520130515446 -155.88486396373014 3.0000001841746435
    vertex 114.4520134902012 -155.88486399529523 8.082903016348462
  endloop
endfacet
facet normal -0.7933533419727715 -0.6087614268172965 6.468628332978454e-08
  outer loop
    vertex 114.75087154534813 -154.7695088929051 3.0000001653094515
    vertex 114.62111547247491 -154.600406945386 8.082903009731439
    vertex 114.62111503381831 -154.60040691382088 3.0000001775576246
  endloop
endfacet
facet normal -0.7933533419727715 -0.6087614268172965 6.468628332978454e-08
  outer loop
    vertex 114.62111547247491 -154.600406945386 8.082903009731439
    vertex 114.75087154534813 -154.7695088929051 3.0000001653094515
    vertex 114.75087198400476 -154.76950892447013 8.082902997483261
  endloop
endfacet
facet normal -0.9914448610132663 0.13052619495862813 8.637267592814801e-08
  outer loop
    vertex 114.83244033570162 -155.38908208056458 8.082902986596313
    vertex 114.8602613439617 -155.1777571836712 3.000000153333794
    vertex 114.83243989704506 -155.38908204899954 3.0000001544224983
  endloop
endfacet
facet normal -0.9914448610132663 0.13052619495862813 8.637267592814801e-08
  outer loop
    vertex 114.8602613439617 -155.1777571836712 3.000000153333794
    vertex 114.83244033570162 -155.38908208056458 8.082902986596313
    vertex 114.8602617826183 -155.17775721523628 8.082902985507628
  endloop
endfacet
facet normal 0.38268343491704904 0.9238795314542303 -2.728840148291667e-08
  outer loop
    vertex 113.63551690927335 -155.88486399303991 8.082903086812468
    vertex 113.83243989545014 -155.966432315427 3.000000237137548
    vertex 113.63551647061675 -155.88486396147482 3.0000002546386577
  endloop
endfacet
facet normal 0.38268343491704904 0.9238795314542303 -2.728840148291667e-08
  outer loop
    vertex 113.83243989545014 -155.966432315427 3.000000237137548
    vertex 113.63551690927335 -155.88486399303991 8.082903086812468
    vertex 113.83244033410676 -155.96643234699212 8.082903069311339
  endloop
endfacet
facet normal 0.6087614268173281 -0.7933533419727478 -5.7463126257317754e-08
  outer loop
    vertex 113.63551691317971 -154.47065043066664 8.082903095594835
    vertex 113.46641449543893 -154.6004069106314 3.0000002772087724
    vertex 113.63551647452313 -154.47065039910157 3.0000002634209753
  endloop
endfacet
facet normal 0.6087614268173281 -0.7933533419727478 -5.7463126257317754e-08
  outer loop
    vertex 113.46641449543893 -154.6004069106314 3.0000002772087724
    vertex 113.63551691317971 -154.47065043066664 8.082903095594835
    vertex 113.46641493409554 -154.60040694219646 8.082903109382613
  endloop
endfacet
facet normal -0.7933533386097011 0.6087614312001339 7.224715991432927e-08
  outer loop
    vertex 114.6211150306288 -155.75510745220026 3.0000001703868797
    vertex 114.75087198174944 -155.586005505398 8.082902992412814
    vertex 114.75087154309284 -155.58600547383298 3.0000001602389723
  endloop
endfacet
facet normal -0.7933533386097011 0.6087614312001339 7.224715991432927e-08
  outer loop
    vertex 114.75087198174944 -155.586005505398 8.082902992412814
    vertex 114.6211150306288 -155.75510745220026 3.0000001703868797
    vertex 114.6211154692854 -155.75510748376539 8.082903002560661
  endloop
endfacet
facet normal 0.9238795314542445 -0.3826834349170069 -8.21076690110667e-08
  outer loop
    vertex 113.33665798297488 -154.76950888899879 3.0000002873566474
    vertex 113.2550900676793 -154.96643234539718 8.082903125346977
    vertex 113.25508962902266 -154.96643231383212 3.000000293173195
  endloop
endfacet
facet normal 0.9238795314542445 -0.3826834349170069 -8.21076690110667e-08
  outer loop
    vertex 113.2550900676793 -154.96643234539718 8.082903125346977
    vertex 113.33665798297488 -154.76950888899879 3.0000002873566474
    vertex 113.3366584216315 -154.76950892056382 8.082903119530457
  endloop
endfacet
facet normal -0.608761431200115 -0.7933533386097177 4.760960026217731e-08
  outer loop
    vertex 114.62111503381831 -154.60040691382088 3.0000001775576246
    vertex 114.45201349410755 -154.47065043292193 8.08290302513077
    vertex 114.45201305545095 -154.47065040135686 3.0000001929569806
  endloop
endfacet
facet normal -0.608761431200115 -0.7933533386097177 4.760960026217731e-08
  outer loop
    vertex 114.45201349410755 -154.47065043292193 8.08290302513077
    vertex 114.62111503381831 -154.60040691382088 3.0000001775576246
    vertex 114.62111547247491 -154.600406945386 8.082903009731439
  endloop
endfacet
facet normal 0.9914448610132601 -0.13052619495867535 -8.637267570610341e-08
  outer loop
    vertex 113.25508962902266 -154.96643231383212 3.000000293173195
    vertex 113.22726862076262 -155.17775721072556 8.082903126435635
    vertex 113.22726818210603 -155.17775717916052 3.0000002942617727
  endloop
endfacet
facet normal 0.9914448610132601 -0.13052619495867535 -8.637267570610341e-08
  outer loop
    vertex 113.22726862076262 -155.17775721072556 8.082903126435635
    vertex 113.25508962902266 -154.96643231383212 3.000000293173195
    vertex 113.2550900676793 -154.96643234539718 8.082903125346977
  endloop
endfacet
facet normal -0.9238795335683249 -0.38268342981316605 7.735470347602912e-08
  outer loop
    vertex 114.8324403368691 -154.9664323497542 8.082902989221
    vertex 114.75087154534813 -154.7695088929051 3.0000001653094515
    vertex 114.8324398982125 -154.9664323181891 3.0000001570471566
  endloop
endfacet
facet normal -0.9238795335683249 -0.38268342981316605 7.735470347602912e-08
  outer loop
    vertex 114.75087154534813 -154.7695088929051 3.0000001653094515
    vertex 114.8324403368691 -154.9664323497542 8.082902989221
    vertex 114.75087198400476 -154.76950892447013 8.082902997483261
  endloop
endfacet
facet normal -0.13052619495864176 -0.9914448610132683 5.107543277205196e-09
  outer loop
    vertex 114.25508963061755 -154.38908204740468 3.00000021045811
    vertex 114.04376520394581 -154.36126063205307 8.082903061042133
    vertex 114.0437647652892 -154.36126060048795 3.0000002288683447
  endloop
endfacet
facet normal -0.13052619495864176 -0.9914448610132683 5.107543277205196e-09
  outer loop
    vertex 114.04376520394581 -154.36126063205307 8.082903061042133
    vertex 114.25508963061755 -154.38908204740468 3.00000021045811
    vertex 114.25509006927416 -154.38908207896975 8.082903042631912
  endloop
endfacet
facet normal -0.38268342981314823 0.9238795335683346 3.8763075749237423e-08
  outer loop
    vertex 114.25508962626058 -155.96643231659448 3.000000200662686
    vertex 114.4520134902012 -155.88486399529523 8.082903016348462
    vertex 114.4520130515446 -155.88486396373014 3.0000001841746435
  endloop
endfacet
facet normal -0.38268342981314823 0.9238795335683346 3.8763075749237423e-08
  outer loop
    vertex 114.4520134902012 -155.88486399529523 8.082903016348462
    vertex 114.25508962626058 -155.96643231659448 3.000000200662686
    vertex 114.25509006491718 -155.9664323481596 8.082903032836482
  endloop
endfacet
facet normal 0.9914448617343452 0.13052618948149108 -8.475152812881248e-08
  outer loop
    vertex 113.22726818210603 -155.17775717916052 3.0000002942617727
    vertex 113.2550900665118 -155.3890820762077 8.082903122722284
    vertex 113.25508962785523 -155.38908204464258 3.0000002905484564
  endloop
endfacet
facet normal 0.9914448617343452 0.13052618948149108 -8.475152812881248e-08
  outer loop
    vertex 113.2550900665118 -155.3890820762077 8.082903122722284
    vertex 113.22726818210603 -155.17775717916052 3.0000002942617727
    vertex 113.22726862076262 -155.17775721072556 8.082903126435635
  endloop
endfacet
facet normal -0.9238795314542302 0.3826834349170412 8.210766893473886e-08
  outer loop
    vertex 114.75087198174944 -155.586005505398 8.082902992412814
    vertex 114.83243989704506 -155.38908204899954 3.0000001544224983
    vertex 114.75087154309284 -155.58600547383298 3.0000001602389723
  endloop
endfacet
facet normal -0.9238795314542302 0.3826834349170412 8.210766893473886e-08
  outer loop
    vertex 114.83243989704506 -155.38908204899954 3.0000001544224983
    vertex 114.75087198174944 -155.586005505398 8.082902992412814
    vertex 114.83244033570162 -155.38908208056458 8.082902986596313
  endloop
endfacet
facet normal -0.9914448617343452 -0.13052618948149075 8.475152779574557e-08
  outer loop
    vertex 114.8602617826183 -155.17775721523628 8.082902985507628
    vertex 114.8324398982125 -154.9664323181891 3.0000001570471566
    vertex 114.8602613439617 -155.1777571836712 3.000000153333794
  endloop
endfacet
facet normal -0.9914448617343452 -0.13052618948149075 8.475152779574557e-08
  outer loop
    vertex 114.8324398982125 -154.9664323181891 3.0000001570471566
    vertex 114.8602617826183 -155.17775721523628 8.082902985507628
    vertex 114.8324403368691 -154.9664323497542 8.082902989221
  endloop
endfacet
facet normal 0.793353338609689 -0.6087614312001502 -7.224715965065133e-08
  outer loop
    vertex 113.46641493409554 -154.60040694219646 8.082903109382613
    vertex 113.33665798297488 -154.76950888899879 3.0000002873566474
    vertex 113.46641449543893 -154.6004069106314 3.0000002772087724
  endloop
endfacet
facet normal 0.793353338609689 -0.6087614312001502 -7.224715965065133e-08
  outer loop
    vertex 113.33665798297488 -154.76950888899879 3.0000002873566474
    vertex 113.46641493409554 -154.60040694219646 8.082903109382613
    vertex 113.3366584216315 -154.76950892056382 8.082903119530457
  endloop
endfacet
facet normal -0.3826834349170485 -0.9238795314542305 2.7288401260872064e-08
  outer loop
    vertex 114.45201305545095 -154.47065040135686 3.0000001929569806
    vertex 114.25509006927416 -154.38908207896975 8.082903042631912
    vertex 114.25508963061755 -154.38908204740468 3.00000021045811
  endloop
endfacet
facet normal -0.3826834349170485 -0.9238795314542305 2.7288401260872064e-08
  outer loop
    vertex 114.25509006927416 -154.38908207896975 8.082903042631912
    vertex 114.45201305545095 -154.47065040135686 3.0000001929569806
    vertex 114.45201349410755 -154.47065043292193 8.08290302513077
  endloop
endfacet
facet normal 0.6087614312001296 0.7933533386097067 -4.760960020666616e-08
  outer loop
    vertex 113.46641493090597 -155.7551074805759 8.082903102211825
    vertex 113.63551647061675 -155.88486396147482 3.0000002546386577
    vertex 113.46641449224941 -155.7551074490108 3.0000002700379955
  endloop
endfacet
facet normal 0.6087614312001296 0.7933533386097067 -4.760960020666616e-08
  outer loop
    vertex 113.63551647061675 -155.88486396147482 3.0000002546386577
    vertex 113.46641493090597 -155.7551074805759 8.082903102211825
    vertex 113.63551690927335 -155.88486399303991 8.082903086812468
  endloop
endfacet
endsolid ledcube
