solid ledcube
facet normal -1.4901134617153705e-08 -0.7071067677857219 -0.7071067945873728
  outer loop
    vertex 117.59666469743469 -242.56133750523907 1.4142133567319002
    vertex -64.40333527276279 -241.14712008070998 -1.7883740212609743e-07
    vertex 117.59666472723693 -241.14712391606426 -1.788395424806577e-07
  endloop
endfacet
facet normal -1.4901134617153705e-08 -0.7071067677857219 -0.7071067945873728
  outer loop
    vertex -64.40333527276279 -241.14712008070998 -1.7883740212609743e-07
    vertex 117.59666469743469 -242.56133750523907 1.4142133567319002
    vertex -64.40333530256503 -242.5613336698847 1.414213356734042
  endloop
endfacet
facet normal -0.9999999999999998 2.1073374947689303e-08 1.1918084177768244e-14
  outer loop
    vertex -64.40333527276279 -241.14712013431324 2.828426945908824
    vertex -64.40333527276279 -241.14712008070998 -1.7883740212609743e-07
    vertex -64.40333530256503 -242.5613336698847 1.414213356734042
  endloop
endfacet
facet normal -0.9999999999999998 2.1073374947689303e-08 1.1918084177768244e-14
  outer loop
    vertex -64.40333527276279 -241.14712008070998 -1.7883740212609743e-07
    vertex -64.40333527276279 -241.14712013431324 2.828426945908824
    vertex -64.40333525786167 -240.44001333972585 2.121320178123098
  endloop
endfacet
facet normal -0.9999999999999998 2.1073374947689303e-08 1.1918084177768244e-14
  outer loop
    vertex -64.40333513865261 -234.7831591974402 7.778174534822003
    vertex -64.40333513865261 -234.78315914383688 4.9497474100758145
    vertex -64.40333519825704 -237.61158632218635 7.778174481218699
  endloop
endfacet
facet normal -0.9999999999999998 2.1073374947689303e-08 1.1918084177768244e-14
  outer loop
    vertex -64.40333513865261 -234.78315914383688 4.9497474100758145
    vertex -64.40333513865261 -234.7831591974402 7.778174534822003
    vertex -64.40333510885036 -233.36894560826542 6.363960999250557
  endloop
endfacet
facet normal -0.9999999999999998 2.1073374947689303e-08 1.1918084177768244e-14
  outer loop
    vertex -64.40333519825704 -237.61158632218635 7.778174481218699
    vertex -64.40333519825705 -237.61158626858307 4.949747356472508
    vertex -64.40333522805932 -239.02579985775782 6.36396089204395
  endloop
endfacet
facet normal -0.9999999999999998 2.1073374947689303e-08 1.1918084177768244e-14
  outer loop
    vertex -64.40333519825705 -237.61158626858307 4.949747356472508
    vertex -64.40333519825704 -237.61158632218635 7.778174481218699
    vertex -64.40333506414699 -231.24762514409838 8.774114917953212e-09
  endloop
endfacet
facet normal -0.9999999999999998 2.1073374947689303e-08 1.1918084177768244e-14
  outer loop
    vertex -64.40333506414699 -231.24762514409838 8.774114917953212e-09
    vertex -64.40333519825704 -237.61158632218635 7.778174481218699
    vertex -64.40333513865261 -234.78315914383688 4.9497474100758145
  endloop
endfacet
facet normal -0.9999999999999998 2.1073374947689303e-08 1.1918084177768244e-14
  outer loop
    vertex -64.40333506414699 -231.24762514409838 8.774114917953212e-09
    vertex -64.40333513865261 -234.78315914383688 4.9497474100758145
    vertex -64.40333507904812 -231.9547319654874 2.121320338932933
  endloop
endfacet
facet normal -0.9999999999999998 2.1073374947689303e-08 1.1918084177768244e-14
  outer loop
    vertex -64.40333506414699 -231.24762514409838 8.774114917953212e-09
    vertex -64.40333507904812 -231.9547319654874 2.121320338932933
    vertex -64.40333503434475 -229.83341160852692 1.4142135979488608
  endloop
endfacet
facet normal -0.9999999999999998 2.1073374947689303e-08 1.1918084177768244e-14
  outer loop
    vertex -64.40333503434475 -229.83341160852692 1.4142135979488608
    vertex -64.40333507904812 -231.9547319654874 2.121320338932933
    vertex -64.40333506414702 -231.24762519770167 2.828427133520304
  endloop
endfacet
facet normal -0.9999999999999998 2.1073374947689303e-08 1.1918084177768244e-14
  outer loop
    vertex -64.40333525786167 -240.44001333972585 2.121320178123098
    vertex -64.40333506414699 -231.24762514409838 8.774114917953212e-09
    vertex -64.40333527276279 -241.14712008070998 -1.7883740212609743e-07
  endloop
endfacet
facet normal -0.9999999999999998 2.1073374947689303e-08 1.1918084177768244e-14
  outer loop
    vertex -64.40333506414699 -231.24762514409838 8.774114917953212e-09
    vertex -64.40333525786167 -240.44001333972585 2.121320178123098
    vertex -64.40333519825705 -237.61158626858307 4.949747356472508
  endloop
endfacet
facet normal -1.1416040594119667e-14 1.8951623936835912e-08 -0.9999999999999998
  outer loop
    vertex 117.59666472723693 -241.14712391606426 -1.788395424806577e-07
    vertex -64.40333506414699 -231.24762514409838 8.774114917953212e-09
    vertex 117.59666493585273 -231.24762897945268 8.771954823627582e-09
  endloop
endfacet
facet normal -1.1416040594119667e-14 1.8951623936835912e-08 -0.9999999999999998
  outer loop
    vertex -64.40333506414699 -231.24762514409838 8.774114917953212e-09
    vertex 117.59666472723693 -241.14712391606426 -1.788395424806577e-07
    vertex -64.40333527276279 -241.14712008070998 -1.7883740212609743e-07
  endloop
endfacet
facet normal -1.4901118304498447e-08 -0.7071067945873727 0.7071067677857221
  outer loop
    vertex 117.5966649209516 -231.9547358008417 2.12132033893077
    vertex -64.40333506414702 -231.24762519770167 2.828427133520304
    vertex -64.40333507904812 -231.9547319654874 2.121320338932933
  endloop
endfacet
facet normal -1.4901118304498447e-08 -0.7071067945873727 0.7071067677857221
  outer loop
    vertex -64.40333506414702 -231.24762519770167 2.828427133520304
    vertex 117.5966649209516 -231.9547358008417 2.12132033893077
    vertex 117.59666493585273 -231.247629033056 2.828427133518143
  endloop
endfacet
facet normal 1.4901134920139488e-08 0.7071067677857219 0.7071067945873728
  outer loop
    vertex -64.40333510885036 -233.36894560826542 6.363960999250557
    vertex 117.59666486134714 -234.7831630327945 7.778174534819843
    vertex 117.59666489114937 -233.36894944361975 6.363960999248399
  endloop
endfacet
facet normal 1.4901134920139488e-08 0.7071067677857219 0.7071067945873728
  outer loop
    vertex 117.59666486134714 -234.7831630327945 7.778174534819843
    vertex -64.40333510885036 -233.36894560826542 6.363960999250557
    vertex -64.40333513865261 -234.7831591974402 7.778174534822003
  endloop
endfacet
facet normal -1.490111830449846e-08 -0.7071067945873732 0.7071067677857216
  outer loop
    vertex 117.59666474213806 -240.44001717508021 2.1213201781209237
    vertex -64.40333519825705 -237.61158626858307 4.949747356472508
    vertex -64.40333525786167 -240.44001333972585 2.121320178123098
  endloop
endfacet
facet normal -1.490111830449846e-08 -0.7071067945873732 0.7071067677857216
  outer loop
    vertex -64.40333519825705 -237.61158626858307 4.949747356472508
    vertex 117.59666474213806 -240.44001717508021 2.1213201781209237
    vertex 117.59666480174268 -237.61159010393743 4.9497473564703505
  endloop
endfacet
facet normal 1.4901134920139466e-08 0.7071067677857209 0.7071067945873738
  outer loop
    vertex -64.40333507904812 -231.9547319654874 2.121320338932933
    vertex 117.59666486134714 -234.78316297919122 4.9497474100736545
    vertex 117.5966649209516 -231.9547358008417 2.12132033893077
  endloop
endfacet
facet normal 1.4901134920139466e-08 0.7071067677857209 0.7071067945873738
  outer loop
    vertex 117.59666486134714 -234.78316297919122 4.9497474100736545
    vertex -64.40333507904812 -231.9547319654874 2.121320338932933
    vertex -64.40333513865261 -234.78315914383688 4.9497474100758145
  endloop
endfacet
facet normal -1.4901118304498447e-08 -0.7071067945873727 0.7071067677857221
  outer loop
    vertex 117.59666477194041 -239.02580369311215 6.363960892041796
    vertex -64.40333519825704 -237.61158632218635 7.778174481218699
    vertex -64.40333522805932 -239.02579985775782 6.36396089204395
  endloop
endfacet
facet normal -1.4901118304498447e-08 -0.7071067945873727 0.7071067677857221
  outer loop
    vertex -64.40333519825704 -237.61158632218635 7.778174481218699
    vertex 117.59666477194041 -239.02580369311215 6.363960892041796
    vertex 117.59666480174265 -237.6115901575407 7.778174481216541
  endloop
endfacet
facet normal -1.4901118304498447e-08 -0.7071067945873727 0.7071067677857221
  outer loop
    vertex 117.59666469743469 -242.56133750523907 1.4142133567319002
    vertex -64.40333527276279 -241.14712013431324 2.828426945908824
    vertex -64.40333530256503 -242.5613336698847 1.414213356734042
  endloop
endfacet
facet normal -1.4901118304498447e-08 -0.7071067945873727 0.7071067677857221
  outer loop
    vertex -64.40333527276279 -241.14712013431324 2.828426945908824
    vertex 117.59666469743469 -242.56133750523907 1.4142133567319002
    vertex 117.59666472723696 -241.1471239696676 2.8284269459066453
  endloop
endfacet
facet normal -1.4901134920139488e-08 -0.7071067677857219 -0.7071067945873728
  outer loop
    vertex 117.59666477194041 -239.02580369311215 6.363960892041796
    vertex -64.40333519825705 -237.61158626858307 4.949747356472508
    vertex 117.59666480174268 -237.61159010393743 4.9497473564703505
  endloop
endfacet
facet normal -1.4901134920139488e-08 -0.7071067677857219 -0.7071067945873728
  outer loop
    vertex -64.40333519825705 -237.61158626858307 4.949747356472508
    vertex 117.59666477194041 -239.02580369311215 6.363960892041796
    vertex -64.40333522805932 -239.02579985775782 6.36396089204395
  endloop
endfacet
facet normal 1.4901134920139488e-08 0.7071067677857219 0.7071067945873728
  outer loop
    vertex -64.40333525786167 -240.44001333972585 2.121320178123098
    vertex 117.59666472723696 -241.1471239696676 2.8284269459066453
    vertex 117.59666474213806 -240.44001717508021 2.1213201781209237
  endloop
endfacet
facet normal 1.4901134920139488e-08 0.7071067677857219 0.7071067945873728
  outer loop
    vertex 117.59666472723696 -241.1471239696676 2.8284269459066453
    vertex -64.40333525786167 -240.44001333972585 2.121320178123098
    vertex -64.40333527276279 -241.14712013431324 2.828426945908824
  endloop
endfacet
facet normal 1.4901118304498447e-08 0.7071067945873727 -0.7071067677857221
  outer loop
    vertex 117.59666489114937 -233.36894944361975 6.363960999248399
    vertex -64.40333513865261 -234.78315914383688 4.9497474100758145
    vertex -64.40333510885036 -233.36894560826542 6.363960999250557
  endloop
endfacet
facet normal 1.4901118304498447e-08 0.7071067945873727 -0.7071067677857221
  outer loop
    vertex -64.40333513865261 -234.78315914383688 4.9497474100758145
    vertex 117.59666489114937 -233.36894944361975 6.363960999248399
    vertex 117.59666486134714 -234.78316297919122 4.9497474100736545
  endloop
endfacet
facet normal 1.4901134920139488e-08 0.7071067677857219 0.7071067945873728
  outer loop
    vertex -64.40333503434475 -229.83341160852692 1.4142135979488608
    vertex 117.59666493585273 -231.247629033056 2.828427133518143
    vertex 117.59666496565497 -229.83341544388125 1.4142135979466994
  endloop
endfacet
facet normal 1.4901134920139488e-08 0.7071067677857219 0.7071067945873728
  outer loop
    vertex 117.59666493585273 -231.247629033056 2.828427133518143
    vertex -64.40333503434475 -229.83341160852692 1.4142135979488608
    vertex -64.40333506414702 -231.24762519770167 2.828427133520304
  endloop
endfacet
facet normal 1.4901118304498447e-08 0.7071067945873727 -0.7071067677857221
  outer loop
    vertex 117.59666496565497 -229.83341544388125 1.4142135979466994
    vertex -64.40333506414699 -231.24762514409838 8.774114917953212e-09
    vertex -64.40333503434475 -229.83341160852692 1.4142135979488608
  endloop
endfacet
facet normal 1.4901118304498447e-08 0.7071067945873727 -0.7071067677857221
  outer loop
    vertex -64.40333506414699 -231.24762514409838 8.774114917953212e-09
    vertex 117.59666496565497 -229.83341544388125 1.4142135979466994
    vertex 117.59666493585273 -231.24762897945268 8.771954823627582e-09
  endloop
endfacet
facet normal 1.1749032436520986e-14 -1.8951629932040245e-08 0.9999999999999998
  outer loop
    vertex -64.40333519825704 -237.61158632218635 7.778174481218699
    vertex 117.59666486134714 -234.7831630327945 7.778174534819843
    vertex -64.40333513865261 -234.7831591974402 7.778174534822003
  endloop
endfacet
facet normal 1.1749032436520986e-14 -1.8951629932040245e-08 0.9999999999999998
  outer loop
    vertex 117.59666486134714 -234.7831630327945 7.778174534819843
    vertex -64.40333519825704 -237.61158632218635 7.778174481218699
    vertex 117.59666480174265 -237.6115901575407 7.778174481216541
  endloop
endfacet
facet normal 0.9999999999999998 -2.1073375349779906e-08 -1.2148407242663463e-14
  outer loop
    vertex 117.59666472723693 -241.14712391606426 -1.788395424806577e-07
    vertex 117.59666472723696 -241.1471239696676 2.8284269459066453
    vertex 117.59666469743469 -242.56133750523907 1.4142133567319002
  endloop
endfacet
facet normal 0.9999999999999998 -2.1073375349779906e-08 -1.2148407242663463e-14
  outer loop
    vertex 117.59666472723696 -241.1471239696676 2.8284269459066453
    vertex 117.59666472723693 -241.14712391606426 -1.788395424806577e-07
    vertex 117.59666474213806 -240.44001717508021 2.1213201781209237
  endloop
endfacet
facet normal 0.9999999999999998 -2.1073375349779906e-08 -1.2148407242663463e-14
  outer loop
    vertex 117.59666493585273 -231.24762897945268 8.771954823627582e-09
    vertex 117.59666474213806 -240.44001717508021 2.1213201781209237
    vertex 117.59666472723693 -241.14712391606426 -1.788395424806577e-07
  endloop
endfacet
facet normal 0.9999999999999998 -2.1073375349779906e-08 -1.2148407242663463e-14
  outer loop
    vertex 117.59666474213806 -240.44001717508021 2.1213201781209237
    vertex 117.59666493585273 -231.24762897945268 8.771954823627582e-09
    vertex 117.59666480174268 -237.61159010393743 4.9497473564703505
  endloop
endfacet
facet normal 0.9999999999999998 -2.1073375349779906e-08 -1.2148407242663463e-14
  outer loop
    vertex 117.59666480174268 -237.61159010393743 4.9497473564703505
    vertex 117.59666493585273 -231.24762897945268 8.771954823627582e-09
    vertex 117.59666477194041 -239.02580369311215 6.363960892041796
  endloop
endfacet
facet normal 0.9999999999999998 -2.1073375349779906e-08 -1.2148407242663463e-14
  outer loop
    vertex 117.59666477194041 -239.02580369311215 6.363960892041796
    vertex 117.59666493585273 -231.24762897945268 8.771954823627582e-09
    vertex 117.59666480174265 -237.6115901575407 7.778174481216541
  endloop
endfacet
facet normal 0.9999999999999998 -2.1073375349779906e-08 -1.2148407242663463e-14
  outer loop
    vertex 117.59666480174265 -237.6115901575407 7.778174481216541
    vertex 117.59666493585273 -231.24762897945268 8.771954823627582e-09
    vertex 117.59666486134714 -234.78316297919122 4.9497474100736545
  endloop
endfacet
facet normal 0.9999999999999998 -2.1073375349779906e-08 -1.2148407242663463e-14
  outer loop
    vertex 117.59666486134714 -234.78316297919122 4.9497474100736545
    vertex 117.59666493585273 -231.24762897945268 8.771954823627582e-09
    vertex 117.5966649209516 -231.9547358008417 2.12132033893077
  endloop
endfacet
facet normal 0.9999999999999998 -2.1073375349779906e-08 -1.2148407242663463e-14
  outer loop
    vertex 117.5966649209516 -231.9547358008417 2.12132033893077
    vertex 117.59666493585273 -231.24762897945268 8.771954823627582e-09
    vertex 117.59666496565497 -229.83341544388125 1.4142135979466994
  endloop
endfacet
facet normal 0.9999999999999998 -2.1073375349779906e-08 -1.2148407242663463e-14
  outer loop
    vertex 117.5966649209516 -231.9547358008417 2.12132033893077
    vertex 117.59666496565497 -229.83341544388125 1.4142135979466994
    vertex 117.59666493585273 -231.247629033056 2.828427133518143
  endloop
endfacet
facet normal 0.9999999999999998 -2.1073375349779906e-08 -1.2148407242663463e-14
  outer loop
    vertex 117.59666486134714 -234.78316297919122 4.9497474100736545
    vertex 117.59666486134714 -234.7831630327945 7.778174534819843
    vertex 117.59666480174265 -237.6115901575407 7.778174481216541
  endloop
endfacet
facet normal 0.9999999999999998 -2.1073375349779906e-08 -1.2148407242663463e-14
  outer loop
    vertex 117.59666486134714 -234.7831630327945 7.778174534819843
    vertex 117.59666486134714 -234.78316297919122 4.9497474100736545
    vertex 117.59666489114937 -233.36894944361975 6.363960999248399
  endloop
endfacet
endsolid ledcube
